<svg id="apple" width="102" height="34" viewBox="0 0 102 34" fill="none" xmlns="http://www.w3.org/2000/svg">
<path fill-rule="evenodd" clip-rule="evenodd" d="M2.21922 0.000366211H99.7808C101.002 0.000366211 102 0.996856 102 2.21587V31.7849C102 33.0039 101.002 34.0004 99.7808 34.0004H2.21922C0.998239 34.0004 0 33.0039 0 31.7849V2.21587C0 0.996933 0.998162 0.000366211 2.21922 0.000366211V0.000366211ZM16.466 13.1363C14.6593 16.2667 15.8079 21.0172 17.806 23.8976C18.8035 25.3378 19.8132 26.6305 21.1966 26.6305C21.2226 26.6305 21.2487 26.6301 21.2753 26.6288C21.9251 26.6032 22.395 26.4033 22.849 26.2103C23.3585 25.9934 23.8858 25.7693 24.7129 25.7693C25.4995 25.7693 26.0015 25.9862 26.4871 26.196C26.9654 26.4027 27.4584 26.6165 28.1867 26.6029C29.7446 26.5738 30.7014 25.179 31.5452 23.9482C32.4259 22.6635 32.8676 21.4159 33.0166 20.9394L33.0228 20.9202C33.0511 20.8354 33.0111 20.7433 32.9296 20.7057C32.9272 20.7046 32.919 20.7012 32.917 20.7005C32.6426 20.5886 30.2357 19.5227 30.2107 16.6173C30.1871 14.2571 32.016 13.0076 32.3828 12.7808L32.4 12.7702C32.4397 12.7445 32.4673 12.7042 32.4766 12.6578C32.4862 12.6116 32.4763 12.5635 32.4496 12.5245C31.1874 10.6802 29.2523 10.4024 28.4734 10.369C28.3602 10.3578 28.2435 10.352 28.1264 10.352C27.2115 10.352 26.3352 10.6969 25.6309 10.974C25.1446 11.1656 24.7248 11.3307 24.4354 11.3307C24.11 11.3307 23.6876 11.1636 23.1987 10.9699C22.5452 10.7106 21.804 10.4172 21.0194 10.4172C21.0009 10.4172 20.9824 10.4176 20.9643 10.4179C19.14 10.4445 17.4162 11.4864 16.466 13.1364V13.1363ZM28.4748 5.29225C27.3703 5.33748 26.0454 6.01613 25.2533 6.9422C24.5801 7.72079 23.9225 9.01847 24.096 10.3269C24.1065 10.4089 24.1732 10.4721 24.2557 10.4782C24.3303 10.484 24.4067 10.487 24.4823 10.487C25.5625 10.487 26.7276 9.8906 27.5233 8.93002C28.3609 7.91581 28.7845 6.61389 28.6562 5.44797C28.6467 5.36105 28.5729 5.29518 28.4875 5.29217H28.4747L28.4748 5.29225ZM46.9416 13.961C46.8829 13.772 46.8238 13.5845 46.7651 13.3975C46.7059 13.2105 46.6473 13.0225 46.5886 12.834H44.8855C44.8263 13.0225 44.7676 13.2105 44.7085 13.3975C44.6499 13.5845 44.5912 13.772 44.532 13.961H43.9836C44.2398 13.1803 44.4878 12.4307 44.7276 11.7131C44.9674 10.995 45.1943 10.3067 45.4088 9.64766H46.09L47.503 13.961H46.9416ZM46.462 12.4246C46.3653 12.1056 46.2685 11.7856 46.1718 11.464C46.0751 11.1429 45.9763 10.825 45.8755 10.5101L45.7494 10.0884H45.7305L45.6044 10.5162C45.5581 10.6719 45.5118 10.824 45.4655 10.9729C45.4197 11.1219 45.3734 11.2729 45.3271 11.4265C45.2808 11.5796 45.2324 11.7383 45.1819 11.9017C45.1315 12.0656 45.0765 12.2397 45.0179 12.4246H46.4621L46.462 12.4246ZM47.4397 10.8943H47.9635C48.0473 11.163 48.1348 11.4265 48.2254 11.6844C48.3153 11.9428 48.4028 12.2043 48.4868 12.4688C48.546 12.6449 48.6035 12.8273 48.6601 13.0163C48.7172 13.2053 48.7749 13.3877 48.834 13.5644H48.8653C48.8777 13.5346 48.8957 13.4801 48.9188 13.4005C48.942 13.3209 48.9693 13.2274 49.0007 13.1201C49.0326 13.0132 49.0681 12.8966 49.1082 12.7707C49.1478 12.6449 49.189 12.517 49.2312 12.3865L49.7293 10.8943H50.2469L49.1365 13.9609H48.5186L47.4396 10.8943L47.4397 10.8943ZM51.7355 12.5443C51.525 12.5525 51.3696 12.6048 51.2688 12.7015C51.1674 12.798 51.117 12.9238 51.117 13.0796C51.117 13.2599 51.1613 13.3945 51.2497 13.4823C51.3377 13.5707 51.4828 13.6148 51.685 13.6148C51.8193 13.6148 51.9571 13.5799 52.0982 13.5106C52.2386 13.4418 52.3806 13.3421 52.5237 13.2116V12.494L51.7355 12.5444V12.5443ZM53.0223 13.5768H53.4385L53.4699 13.8793C53.3943 13.9168 53.3069 13.9471 53.2081 13.9702C53.1093 13.9933 53.0177 14.0051 52.9338 14.0051C52.8119 14.0051 52.7172 13.98 52.6498 13.9296C52.5829 13.8792 52.5449 13.7739 52.5366 13.6147L52.5299 13.608C52.4126 13.7092 52.2989 13.7867 52.1893 13.8412C52.0802 13.8957 51.9804 13.9357 51.8898 13.9609C51.7993 13.986 51.7174 14.0009 51.6439 14.005C51.5703 14.0091 51.5106 14.0112 51.4643 14.0112C51.2874 14.0112 51.1412 13.9819 51.026 13.9228C50.9102 13.8642 50.8187 13.7908 50.7512 13.7024C50.6843 13.6146 50.637 13.519 50.6097 13.4163C50.582 13.3131 50.5686 13.2176 50.5686 13.1297C50.5686 12.861 50.6643 12.6458 50.8557 12.484C51.0471 12.3228 51.3404 12.2292 51.7356 12.2041L52.5238 12.1537V11.9586C52.5238 11.7022 52.4775 11.522 52.3849 11.4166C52.2928 11.3118 52.1183 11.2594 51.8616 11.2594C51.7103 11.2594 51.5523 11.2738 51.3887 11.3036C51.2246 11.3329 51.0646 11.375 50.9092 11.4294L50.7954 11.0832C50.9719 11.0031 51.1654 10.9424 51.3758 10.9003C51.5863 10.8582 51.788 10.8377 51.9815 10.8377C52.3051 10.8377 52.5598 10.9132 52.7445 11.0642C52.9298 11.2152 53.0224 11.4798 53.0224 11.8573V13.5766L53.0223 13.5768ZM54.1826 13.961V10.8882H54.6935V13.961H54.1826ZM54.7882 10.0818C54.7882 10.1701 54.7543 10.2477 54.6874 10.315C54.6199 10.3823 54.5382 10.4157 54.4414 10.4157C54.3529 10.4157 54.2751 10.3823 54.2078 10.315C54.1404 10.2477 54.107 10.1701 54.107 10.0818C54.107 9.98522 54.1404 9.90455 54.2078 9.83929C54.2752 9.77456 54.3529 9.74166 54.4414 9.74166C54.5381 9.74166 54.6199 9.77456 54.6874 9.83929C54.7543 9.90447 54.7882 9.98514 54.7882 10.0818ZM56.2201 13.961H55.7093V9.48378H56.2264L56.2202 13.961H56.2201ZM58.1188 12.5443C57.9084 12.5525 57.753 12.6048 57.6521 12.7015C57.5508 12.798 57.5003 12.9238 57.5003 13.0796C57.5003 13.2599 57.5446 13.3945 57.6331 13.4823C57.7211 13.5707 57.8662 13.6148 58.0684 13.6148C58.2027 13.6148 58.3405 13.5799 58.4816 13.5106C58.6221 13.4418 58.764 13.3421 58.9071 13.2116V12.494L58.1188 12.5444V12.5443ZM59.4057 13.5768H59.822L59.8534 13.8793C59.7777 13.9168 59.6903 13.9471 59.5915 13.9702C59.4927 13.9933 59.4011 14.0051 59.3173 14.0051C59.1953 14.0051 59.1006 13.98 59.0333 13.9296C58.9663 13.8792 58.9283 13.7739 58.92 13.6147L58.9134 13.608C58.7961 13.7092 58.6824 13.7867 58.5728 13.8412C58.4638 13.8957 58.3639 13.9357 58.2734 13.9609C58.1828 13.986 58.1009 14.0009 58.0275 14.005C57.9538 14.0091 57.8942 14.0112 57.8479 14.0112C57.6709 14.0112 57.5247 13.9819 57.4095 13.9228C57.2937 13.8642 57.2021 13.7908 57.1347 13.7024C57.0678 13.6146 57.0205 13.519 56.9932 13.4163C56.9654 13.3131 56.952 13.2176 56.952 13.1297C56.952 12.861 57.0477 12.6458 57.2391 12.484C57.4306 12.3228 57.7238 12.2292 58.119 12.2041L58.9072 12.1537V11.9586C58.9072 11.7022 58.8609 11.522 58.7683 11.4166C58.6762 11.3118 58.5018 11.2594 58.245 11.2594C58.0938 11.2594 57.9358 11.2738 57.7721 11.3036C57.6081 11.3329 57.448 11.375 57.2926 11.4294L57.1789 11.0832C57.3555 11.0031 57.5489 10.9424 57.7593 10.9003C57.9698 10.8582 58.1715 10.8377 58.365 10.8377C58.6886 10.8377 58.9433 10.9132 59.128 11.0642C59.3133 11.2152 59.4059 11.4798 59.4059 11.8573V13.5766L59.4057 13.5768ZM60.9195 11.0834C61.1011 10.9822 61.2683 10.9124 61.4217 10.8723C61.576 10.8322 61.718 10.8122 61.8498 10.8122C62.0726 10.8122 62.2598 10.8533 62.4091 10.9355C62.5594 11.0172 62.6782 11.1306 62.7662 11.2755C62.8557 11.4198 62.919 11.5924 62.9566 11.7917C62.9947 11.9911 63.0137 12.2063 63.0137 12.4369C63.0137 12.6511 62.9916 12.8535 62.9473 13.0446C62.903 13.2357 62.8295 13.4015 62.7266 13.5423C62.6233 13.6831 62.4869 13.795 62.3166 13.8793C62.1462 13.963 61.9347 14.0051 61.6827 14.0051C61.4723 14.0051 61.2556 13.982 61.0328 13.9357C60.81 13.8895 60.5975 13.8202 60.3959 13.7277V9.4837H60.9068V10.3842L60.8878 11.0581L60.9197 11.0833L60.9195 11.0834ZM61.7489 11.2406C61.6017 11.2406 61.452 11.2668 61.3028 11.3192C61.1525 11.3721 61.0203 11.4317 60.9066 11.4979V13.4509C61.0378 13.5095 61.1664 13.5486 61.2925 13.5676C61.4196 13.5865 61.5373 13.5959 61.6475 13.5959C61.7781 13.5959 61.896 13.5768 61.999 13.5393C62.1028 13.5013 62.1904 13.4371 62.2618 13.3482C62.3334 13.2578 62.3889 13.1391 62.4265 12.9923C62.4645 12.8464 62.4836 12.664 62.4836 12.4467C62.4836 12.2043 62.4656 12.0035 62.4301 11.8463C62.394 11.6901 62.3436 11.5657 62.2773 11.4759C62.2124 11.3865 62.1343 11.3249 62.0431 11.291C61.9526 11.2576 61.8548 11.2407 61.7488 11.2407L61.7489 11.2406ZM64.2876 13.961H63.7767V9.48378H64.2938L64.2876 13.961ZM66.4194 11.1964C66.2722 11.1964 66.1482 11.2236 66.0474 11.2786C65.9465 11.3331 65.8637 11.4065 65.7983 11.4989C65.733 11.5914 65.6847 11.6983 65.6533 11.82C65.6218 11.9418 65.6018 12.0676 65.593 12.1976H67.164C67.164 12.0506 67.1511 11.9156 67.1259 11.7917C67.1007 11.6679 67.06 11.5616 67.0029 11.4738C66.9463 11.3854 66.8707 11.3171 66.776 11.2688C66.6813 11.2206 66.5624 11.1964 66.4194 11.1964ZM66.4071 10.8188C66.6129 10.8188 66.7862 10.846 66.9273 10.9005C67.0683 10.955 67.1851 11.0263 67.2777 11.1147C67.3698 11.2031 67.4413 11.3017 67.4917 11.4106C67.5421 11.52 67.5793 11.6289 67.6024 11.7383C67.6256 11.8472 67.6389 11.95 67.6436 12.0465C67.6477 12.1431 67.6497 12.2232 67.6497 12.2859V12.5315H65.587C65.587 12.6743 65.5998 12.811 65.625 12.9409C65.6502 13.0708 65.6965 13.1853 65.7635 13.284C65.8308 13.3826 65.9214 13.4612 66.0351 13.5203C66.1483 13.5788 66.2914 13.6081 66.4637 13.6081C66.6449 13.6081 66.8095 13.5896 66.9593 13.5516C67.1085 13.5142 67.2711 13.4592 67.4481 13.3878L67.5741 13.7155C67.3889 13.8121 67.2032 13.8835 67.0159 13.9297C66.8285 13.976 66.632 13.9991 66.4262 13.9991C66.1525 13.9991 65.9276 13.9569 65.7511 13.8727C65.5747 13.789 65.4347 13.6765 65.3318 13.5362C65.2284 13.3955 65.1574 13.2296 65.1172 13.0385C65.0771 12.8474 65.0571 12.645 65.0571 12.4308C65.0571 12.3383 65.0638 12.2345 65.0761 12.119C65.0889 12.0034 65.1132 11.8873 65.1487 11.7697C65.1847 11.652 65.2341 11.5355 65.2968 11.4199C65.3601 11.3049 65.4419 11.2032 65.5428 11.1148C65.6441 11.0264 65.7645 10.955 65.9055 10.9006C66.0465 10.8461 66.2137 10.8189 66.4072 10.8189L66.4071 10.8188ZM72.6829 12.4307C72.6829 12.628 72.6608 12.8211 72.6171 13.0101C72.5729 13.1991 72.4972 13.3681 72.3896 13.5171C72.2826 13.6661 72.1386 13.7858 71.9579 13.8762C71.7767 13.9661 71.5519 14.0113 71.2829 14.0113C71.0302 14.0113 70.8193 13.9682 70.649 13.8824C70.4787 13.7961 70.3428 13.6821 70.242 13.5392C70.1411 13.3965 70.0685 13.2305 70.0243 13.0416C69.98 12.8526 69.9579 12.6532 69.9579 12.4437C69.9579 12.2377 69.9831 12.0384 70.0341 11.8452C70.0845 11.652 70.1642 11.48 70.2733 11.329C70.3829 11.178 70.526 11.0562 70.7025 10.9638C70.879 10.8713 71.0936 10.8251 71.3456 10.8251C71.6024 10.8251 71.817 10.8713 71.9893 10.9638C72.1616 11.0562 72.2996 11.1764 72.4024 11.3259C72.5053 11.4749 72.5779 11.646 72.6202 11.839C72.6618 12.0322 72.6829 12.2295 72.6829 12.4308V12.4307ZM72.1467 12.4436C72.1467 12.3049 72.1375 12.1641 72.1184 12.0213C72.0994 11.8785 72.0608 11.7475 72.0016 11.6279C71.943 11.5082 71.8612 11.4105 71.7558 11.3351C71.6508 11.2596 71.5139 11.2215 71.3456 11.2215C71.1732 11.2215 71.0328 11.2585 70.9231 11.332C70.8141 11.4055 70.7276 11.4999 70.6644 11.6155C70.6016 11.7306 70.5573 11.8621 70.5321 12.009C70.5069 12.156 70.494 12.3008 70.494 12.4436C70.494 12.5946 70.5048 12.7415 70.5259 12.8843C70.547 13.0271 70.5876 13.1519 70.6489 13.2588C70.7097 13.3661 70.7961 13.4519 70.9072 13.5172C71.0189 13.5819 71.165 13.6147 71.3456 13.6147C71.5139 13.6147 71.6497 13.5798 71.7526 13.5105C71.8555 13.4417 71.9368 13.3502 71.9955 13.2367C72.0547 13.1237 72.0943 12.9973 72.1153 12.8592C72.1364 12.7205 72.1467 12.5818 72.1467 12.4437V12.4436ZM75.3451 13.961V11.9335C75.3451 11.8283 75.3399 11.7326 75.3291 11.6469C75.3188 11.5606 75.2957 11.4871 75.2596 11.4265C75.2241 11.3654 75.1696 11.3192 75.098 11.2878C75.0265 11.2565 74.9288 11.2406 74.8068 11.2406C74.6586 11.2406 74.4986 11.2719 74.3252 11.3351C74.1518 11.3983 73.9984 11.4671 73.8626 11.5432V13.9611H73.3517V10.8882H73.8497L73.8564 11.1523L73.8754 11.1651C74.0488 11.0562 74.2335 10.9709 74.4321 10.9103C74.6302 10.8492 74.8036 10.8188 74.9508 10.8188C75.1617 10.8188 75.3269 10.8492 75.4478 10.9103C75.5677 10.9709 75.6583 11.0484 75.72 11.143C75.7812 11.2375 75.8188 11.3434 75.8337 11.461C75.8486 11.5786 75.8558 11.6942 75.8558 11.8071V13.961H75.3449H75.3451ZM79.0348 10.1069V10.8882H79.962V11.2657H79.0286V13.0806C79.0286 13.2274 79.0569 13.3482 79.1135 13.4417C79.1701 13.5362 79.2848 13.5829 79.4572 13.5829C79.5961 13.5829 79.7896 13.5475 80.0376 13.4761L80.1194 13.8222C80.0062 13.8772 79.8811 13.9188 79.7443 13.9481C79.6075 13.9779 79.4762 13.9922 79.3501 13.9922C78.795 13.9922 78.5176 13.7416 78.5176 13.2387V11.2656H78.0694V10.9908L78.5428 10.8439L78.7024 10.1638L79.0347 10.1068L79.0348 10.1069ZM81.0908 11.1588C81.2812 11.0623 81.4736 10.9812 81.6702 10.9164C81.8657 10.8512 82.034 10.8188 82.1724 10.8188C82.3838 10.8188 82.548 10.8492 82.6668 10.9103C82.7846 10.9709 82.8727 11.0484 82.9329 11.143C82.9915 11.2375 83.0276 11.3434 83.0399 11.461C83.0528 11.5786 83.059 11.6942 83.059 11.8071V13.961H82.5481V11.9335C82.5481 11.8283 82.5429 11.7326 82.5321 11.6469C82.5218 11.5606 82.4987 11.4871 82.4626 11.4265C82.4271 11.3654 82.3726 11.3192 82.301 11.2878C82.2295 11.2565 82.1318 11.2406 82.0098 11.2406C81.8616 11.2406 81.7016 11.2719 81.5282 11.3351C81.3549 11.3983 81.2015 11.4671 81.0656 11.5432V13.9611H80.5547V9.48385H81.0594V10.4789L81.0404 11.1338L81.0908 11.1589V11.1588ZM85.096 11.1964C84.9488 11.1964 84.8248 11.2236 84.724 11.2786C84.6231 11.3331 84.5403 11.4065 84.4749 11.4989C84.4096 11.5914 84.3612 11.6983 84.3298 11.82C84.2985 11.9418 84.2784 12.0676 84.2696 12.1976H85.8405C85.8405 12.0506 85.8277 11.9156 85.8024 11.7917C85.7773 11.6679 85.7366 11.5616 85.6794 11.4738C85.6228 11.3854 85.5472 11.3171 85.4526 11.2688C85.3579 11.2206 85.239 11.1964 85.096 11.1964ZM85.0836 10.8188C85.2895 10.8188 85.4628 10.846 85.6038 10.9005C85.7448 10.955 85.8616 11.0263 85.9542 11.1147C86.0463 11.2031 86.1179 11.3017 86.1683 11.4106C86.2187 11.52 86.2558 11.6289 86.2789 11.7383C86.3021 11.8472 86.3154 11.95 86.3201 12.0465C86.3242 12.1431 86.3262 12.2232 86.3262 12.2859V12.5315H84.2635C84.2635 12.6743 84.2763 12.811 84.3016 12.9409C84.3267 13.0708 84.3731 13.1853 84.44 13.284C84.5074 13.3826 84.598 13.4612 84.7116 13.5203C84.8249 13.5788 84.9679 13.6081 85.1402 13.6081C85.3214 13.6081 85.486 13.5896 85.6358 13.5516C85.785 13.5142 85.9476 13.4592 86.1246 13.3878L86.2506 13.7155C86.0654 13.8121 85.8797 13.8835 85.6924 13.9297C85.505 13.976 85.3085 13.9991 85.1026 13.9991C84.8289 13.9991 84.604 13.9569 84.4276 13.8727C84.2511 13.789 84.1112 13.6765 84.0082 13.5362C83.9049 13.3955 83.8338 13.2296 83.7937 13.0385C83.7535 12.8474 83.7335 12.645 83.7335 12.4308C83.7335 12.3383 83.7401 12.2345 83.7525 12.119C83.7653 12.0034 83.7896 11.8873 83.8251 11.7697C83.8611 11.652 83.9105 11.5355 83.9733 11.4199C84.0366 11.3049 84.1184 11.2032 84.2192 11.1148C84.3206 11.0264 84.441 10.955 84.582 10.9006C84.723 10.8461 84.8902 10.8189 85.0836 10.8189V10.8188ZM47.9697 24.0402C47.8919 23.8081 47.8184 23.5759 47.7495 23.3437C47.68 23.1116 47.607 22.8767 47.5293 22.6389H45.3615L44.9211 24.0402H43.9743C44.3124 23.0232 44.6417 22.0421 44.9628 21.0969C45.2839 20.1513 45.5915 19.2364 45.8848 18.3523H47.0724L48.9412 24.0402H47.9697H47.9697ZM46.9314 20.6197C46.8536 20.3546 46.7775 20.0947 46.7029 19.8379C46.6283 19.582 46.5521 19.3262 46.4745 19.0735H46.441L46.001 20.5868C45.9954 20.6032 45.9815 20.6463 45.9594 20.7152C45.9373 20.783 45.9125 20.8657 45.8847 20.9629C45.857 21.0594 45.8266 21.1617 45.7932 21.268C45.7602 21.3759 45.7284 21.478 45.698 21.5746C45.6677 21.6717 45.6409 21.7544 45.6188 21.8264C45.5966 21.8983 45.5828 21.9425 45.5776 21.9589H47.3302L46.9314 20.6198L46.9314 20.6197ZM50.3947 20.3752C50.5779 20.2313 50.7744 20.1209 50.9875 20.0439C51.1995 19.9664 51.4083 19.9278 51.6115 19.9278C51.9104 19.9278 52.16 19.9812 52.3617 20.0891C52.5624 20.197 52.7235 20.3449 52.8423 20.5329C52.9602 20.7209 53.0445 20.9377 53.0945 21.1838C53.1439 21.4298 53.1691 21.6938 53.1691 21.9758C53.1691 22.2743 53.1387 22.5532 53.0775 22.8131C53.0168 23.073 52.921 23.2996 52.7883 23.4932C52.6556 23.6864 52.4822 23.8384 52.2707 23.9489C52.0577 24.0598 51.7999 24.1148 51.4968 24.1148C51.4191 24.1148 51.3332 24.1107 51.2396 24.1025C51.1454 24.0943 51.0497 24.0804 50.9499 24.0609C50.8505 24.0419 50.7507 24.0157 50.651 23.9823C50.5527 23.9489 50.4616 23.9047 50.3782 23.8498V25.7652H49.4731V19.9772H50.3365L50.3535 20.3425L50.3946 20.3754L50.3947 20.3752ZM51.3085 23.4598C51.4305 23.4598 51.5493 23.4363 51.6656 23.3895C51.7819 23.3422 51.8842 23.261 51.9727 23.1434C52.0618 23.0273 52.1323 22.8711 52.1847 22.6734C52.2372 22.4771 52.2635 22.2311 52.2635 21.9383C52.2635 21.6773 52.2413 21.4616 52.1971 21.289C52.1528 21.1174 52.089 20.9818 52.0061 20.8827C51.9233 20.7815 51.825 20.7111 51.7113 20.6695C51.5976 20.6285 51.4746 20.6074 51.3419 20.6074C51.2642 20.6074 51.1799 20.6188 51.0883 20.6408C50.9972 20.6629 50.9071 20.6916 50.8187 20.7276C50.7296 20.7635 50.6468 20.8037 50.5691 20.8494C50.4919 20.8935 50.4307 20.9377 50.3864 20.9819V23.2015C50.4307 23.2348 50.4888 23.2677 50.5608 23.298C50.6328 23.3284 50.7105 23.3561 50.7934 23.3812C50.8767 23.4059 50.9621 23.4254 51.0511 23.4393C51.1397 23.4531 51.2256 23.4598 51.3084 23.4598H51.3085ZM54.9211 20.3752C55.1042 20.2313 55.3008 20.1209 55.5138 20.0439C55.7258 19.9664 55.9347 19.9278 56.1379 19.9278C56.4368 19.9278 56.6864 19.9812 56.8881 20.0891C57.0887 20.197 57.2498 20.3449 57.3687 20.5329C57.4865 20.7209 57.5709 20.9377 57.6208 21.1838C57.6702 21.4298 57.6954 21.6938 57.6954 21.9758C57.6954 22.2743 57.6651 22.5532 57.6038 22.8131C57.5432 23.073 57.4474 23.2996 57.3147 23.4932C57.1819 23.6864 57.0085 23.8384 56.797 23.9489C56.584 24.0598 56.3263 24.1148 56.0232 24.1148C55.9455 24.1148 55.8596 24.1107 55.7659 24.1025C55.6718 24.0943 55.5761 24.0804 55.4763 24.0609C55.377 24.0419 55.2772 24.0157 55.1774 23.9823C55.0791 23.9489 54.9881 23.9047 54.9047 23.8498V25.7652H53.9996V19.9772H54.863L54.88 20.3425L54.9211 20.3754L54.9211 20.3752ZM55.8349 23.4598C55.9568 23.4598 56.0757 23.4363 56.192 23.3895C56.3083 23.3422 56.4106 23.261 56.4992 23.1434C56.5882 23.0273 56.6587 22.8711 56.7112 22.6734C56.7636 22.4771 56.7899 22.2311 56.7899 21.9383C56.7899 21.6773 56.7677 21.4616 56.7235 21.289C56.6792 21.1174 56.6155 20.9818 56.5326 20.8827C56.4498 20.7815 56.3514 20.7111 56.2377 20.6695C56.1241 20.6285 56.0011 20.6074 55.8684 20.6074C55.7906 20.6074 55.7062 20.6188 55.6147 20.6408C55.5236 20.6629 55.4335 20.6916 55.3451 20.7276C55.2561 20.7635 55.1732 20.8037 55.0956 20.8494C55.0184 20.8935 54.9571 20.9377 54.9129 20.9819V23.2015C54.9571 23.2348 55.0153 23.2677 55.0873 23.298C55.1593 23.3284 55.237 23.3561 55.3198 23.3812C55.4032 23.4059 55.4886 23.4254 55.5776 23.4393C55.6662 23.4531 55.7521 23.4598 55.8349 23.4598ZM59.5555 24.0402H58.6504V18.1284H59.5636L59.5555 24.0402ZM62.3791 19.8862C62.656 19.8862 62.8927 19.9206 63.0892 19.99C63.2863 20.0588 63.4494 20.1487 63.5795 20.2591C63.7097 20.3696 63.8106 20.4954 63.8826 20.6366C63.9546 20.7774 64.0086 20.9212 64.0447 21.0677C64.0807 21.214 64.1028 21.3553 64.1111 21.4904C64.1193 21.626 64.1234 21.7437 64.1234 21.8428V22.1664H61.4241C61.4241 22.3431 61.4422 22.5075 61.4781 22.6595C61.5142 22.8115 61.5749 22.9431 61.6608 23.0535C61.7468 23.164 61.86 23.2528 62.0014 23.3191C62.1424 23.3853 62.3159 23.4182 62.5206 23.4182C62.7532 23.4182 62.9729 23.3951 63.1807 23.3479C63.3887 23.3011 63.6032 23.2333 63.8244 23.145L64.0235 23.7085C63.7688 23.8467 63.5074 23.9463 63.2389 24.0069C62.9703 24.0681 62.695 24.0983 62.4126 24.0983C62.0303 24.0983 61.7164 24.0429 61.47 23.9324C61.2235 23.822 61.0285 23.6714 60.8845 23.4803C60.7404 23.2898 60.6405 23.069 60.5855 22.8172C60.5299 22.5655 60.5021 22.2989 60.5021 22.0169C60.5021 21.8181 60.5274 21.5957 60.5773 21.3497C60.6267 21.1036 60.7198 20.8714 60.8552 20.6531C60.991 20.4348 61.1809 20.2525 61.4242 20.1061C61.6682 19.9591 61.9861 19.8862 62.3791 19.8862V19.8862ZM62.4126 20.4995C62.2356 20.4995 62.0874 20.5313 61.968 20.595C61.8492 20.6587 61.7524 20.7445 61.6774 20.8518C61.6027 20.9598 61.5472 21.084 61.5117 21.2253C61.4756 21.3661 61.452 21.514 61.4406 21.6686H63.2848C63.2848 21.4976 63.2709 21.3399 63.2431 21.1961C63.2153 21.0522 63.1685 20.9295 63.1021 20.8273C63.0357 20.7251 62.9456 20.645 62.832 20.5869C62.7183 20.5289 62.5789 20.4996 62.4126 20.4996L62.4126 20.4995ZM69.3393 18.2526C69.5997 18.2526 69.879 18.2788 70.178 18.3312C70.4769 18.3836 70.7568 18.4817 71.0172 18.6255L70.7512 19.2722C70.4743 19.1561 70.213 19.0801 69.9665 19.0442C69.72 19.0082 69.4998 18.9908 69.3058 18.9908C69.0069 18.9908 68.7661 19.0653 68.5835 19.2142C68.4008 19.3637 68.3092 19.5877 68.3092 19.8861C68.3092 20.0186 68.3442 20.1306 68.4131 20.222C68.4827 20.3129 68.5736 20.3905 68.6874 20.4542C68.8006 20.5174 68.9298 20.5703 69.0733 20.6114C69.2174 20.653 69.3671 20.693 69.5219 20.7316C69.7216 20.7813 69.9305 20.8394 70.1492 20.9057C70.3678 20.972 70.5685 21.066 70.7512 21.1877C70.9339 21.3094 71.0851 21.4712 71.204 21.6726C71.3229 21.8744 71.3825 22.1359 71.3825 22.4564C71.3825 23.0092 71.1859 23.4237 70.7929 23.7C70.3997 23.9764 69.8513 24.1146 69.1484 24.1146C68.8546 24.1146 68.5335 24.0817 68.1847 24.0154C67.8358 23.9486 67.5091 23.8326 67.205 23.6672L67.4788 22.9953C67.8441 23.1556 68.1708 23.2593 68.459 23.306C68.7471 23.3533 68.993 23.3769 69.1983 23.3769C69.5858 23.3769 69.8848 23.3091 70.0952 23.1735C70.3056 23.0384 70.4106 22.799 70.4106 22.4564C70.4106 22.3069 70.3834 22.1842 70.3278 22.0876C70.2722 21.9906 70.196 21.9078 70.0993 21.8385C70.0026 21.7697 69.8873 21.7126 69.7546 21.6684C69.6218 21.6243 69.4752 21.58 69.3146 21.5359C69.0543 21.4697 68.8037 21.3993 68.5629 21.3242C68.3221 21.2498 68.1101 21.1547 67.9275 21.0386C67.7448 20.9225 67.5992 20.7746 67.4911 20.5948C67.3836 20.415 67.3296 20.187 67.3296 19.9106C67.3296 19.3964 67.5082 18.9917 67.8652 18.6957C68.2223 18.4004 68.7136 18.2525 69.3393 18.2525L69.3393 18.2526ZM73.3923 18.9075V19.977H74.5963V20.6074H73.384V22.7483C73.384 22.9528 73.4211 23.1116 73.4962 23.2235C73.5708 23.337 73.719 23.3935 73.9402 23.3935C74.0288 23.3935 74.1357 23.3822 74.2603 23.3601C74.3848 23.3381 74.5247 23.3077 74.6797 23.2693L74.8042 23.8662C74.6437 23.9438 74.4667 24.0003 74.2727 24.0362C74.0787 24.0721 73.896 24.0902 73.7248 24.0902C73.2704 24.0902 72.9519 23.9905 72.7693 23.7928C72.5866 23.594 72.495 23.3315 72.495 23.0068V20.6075H71.9141V20.1128L72.5449 19.9191C72.5506 19.9027 72.566 19.8488 72.5908 19.7579C72.6159 19.6664 72.6422 19.5658 72.6695 19.4548C72.6972 19.3443 72.7235 19.2436 72.7487 19.1523C72.7734 19.0613 72.7888 19.0074 72.7944 18.9909L73.3923 18.9077L73.3923 18.9075ZM79.1067 22.0168C79.1067 22.288 79.0733 22.549 79.0069 22.8007C78.9406 23.0518 78.8309 23.2758 78.6791 23.4721C78.5269 23.6683 78.3262 23.8244 78.0766 23.9405C77.8275 24.0567 77.5173 24.1148 77.1464 24.1148C76.7923 24.1148 76.496 24.0597 76.2577 23.9488C76.0195 23.8383 75.827 23.6878 75.6804 23.4973C75.5338 23.3062 75.4288 23.0837 75.3651 22.8295C75.3012 22.5752 75.2693 22.3071 75.2693 22.0251C75.2693 21.7487 75.3054 21.4821 75.3774 21.2252C75.4495 20.9679 75.5632 20.7414 75.718 20.5452C75.8729 20.3489 76.0736 20.1913 76.3201 20.0726C76.5665 19.9539 76.8644 19.8943 77.2128 19.8943C77.5673 19.8943 77.8663 19.9539 78.1101 20.0726C78.3535 20.1913 78.549 20.3489 78.6957 20.5452C78.8423 20.7414 78.9473 20.9679 79.011 21.2252C79.0748 21.4821 79.1067 21.7461 79.1067 22.0168ZM78.16 22.0251C78.16 21.854 78.1486 21.6814 78.1265 21.5073C78.1044 21.3332 78.0586 21.1754 77.9897 21.0347C77.9202 20.8935 77.8235 20.7789 77.699 20.6906C77.5745 20.6017 77.4124 20.5575 77.2127 20.5575C77.0136 20.5575 76.8489 20.6007 76.7188 20.6865C76.5886 20.7717 76.4862 20.8853 76.4116 21.026C76.3365 21.1673 76.284 21.3245 76.2536 21.4986C76.2233 21.6727 76.2079 21.8484 76.2079 22.0252C76.2079 22.2188 76.2207 22.4012 76.2454 22.5727C76.2701 22.7437 76.319 22.8947 76.3905 23.0247C76.4625 23.1542 76.565 23.2579 76.6982 23.3355C76.8309 23.4131 77.0028 23.4516 77.2127 23.4516C77.4124 23.4516 77.5729 23.41 77.6948 23.3272C77.8163 23.244 77.912 23.1367 77.9814 23.0036C78.0504 22.8711 78.0977 22.7191 78.1224 22.5475C78.1471 22.3764 78.16 22.2023 78.16 22.0251ZM80.9092 20.6238C81.0141 20.5247 81.1304 20.4306 81.258 20.3423C81.3851 20.2535 81.5137 20.1749 81.6439 20.106C81.7741 20.0366 81.9027 19.9811 82.0303 19.94C82.1575 19.8984 82.2768 19.8778 82.3874 19.8778C82.5315 19.8778 82.6035 19.958 82.6035 20.1182C82.6035 20.1732 82.5948 20.24 82.5783 20.317C82.5619 20.3946 82.5397 20.4748 82.5119 20.5574C82.4842 20.6406 82.4538 20.7192 82.4203 20.7937C82.3874 20.8687 82.3514 20.9309 82.3128 20.9807C82.0803 20.9915 81.8477 21.0069 81.6151 21.026C81.3826 21.0455 81.15 21.0609 80.9174 21.0717V24.0402H80.0119V19.9858H80.9004C80.8953 20.0798 80.8896 20.1805 80.884 20.2883C80.8783 20.3962 80.8701 20.4969 80.8593 20.5909L80.9092 20.6238H80.9092ZM84.8706 19.8862C85.1474 19.8862 85.384 19.9206 85.5806 19.99C85.7776 20.0588 85.9408 20.1487 86.0709 20.2591C86.2011 20.3696 86.302 20.4954 86.374 20.6366C86.446 20.7774 86.5 20.9212 86.5361 21.0677C86.5721 21.214 86.5943 21.3553 86.6025 21.4904C86.6107 21.626 86.6148 21.7437 86.6148 21.8428V22.1664H83.9155C83.9155 22.3431 83.9336 22.5075 83.9696 22.6595C84.0055 22.8115 84.0663 22.9431 84.1522 23.0535C84.2381 23.164 84.3514 23.2528 84.4928 23.3191C84.6338 23.3853 84.8072 23.4182 85.012 23.4182C85.2446 23.4182 85.4643 23.3951 85.6722 23.3479C85.8801 23.3011 86.0946 23.2333 86.3159 23.145L86.515 23.7085C86.2603 23.8467 85.9989 23.9463 85.7303 24.0069C85.4617 24.0681 85.1865 24.0983 84.904 24.0983C84.5217 24.0983 84.2078 24.0429 83.9614 23.9324C83.7149 23.822 83.5199 23.6714 83.3758 23.4803C83.2317 23.2898 83.1319 23.069 83.0769 22.8172C83.0213 22.5655 82.9936 22.2989 82.9936 22.0169C82.9936 21.8181 83.0188 21.5957 83.0687 21.3497C83.1181 21.1036 83.2113 20.8714 83.3466 20.6531C83.4824 20.4348 83.6723 20.2525 83.9156 20.1061C84.1595 19.9591 84.4775 19.8862 84.8706 19.8862V19.8862ZM84.904 20.4995C84.727 20.4995 84.5788 20.5313 84.4594 20.595C84.3406 20.6587 84.2438 20.7445 84.1688 20.8518C84.0941 20.9598 84.0386 21.084 84.0031 21.2253C83.967 21.3661 83.9434 21.514 83.9321 21.6686H85.7761C85.7761 21.4976 85.7622 21.3399 85.7344 21.1961C85.7066 21.0522 85.6598 20.9295 85.5934 20.8273C85.527 20.7251 85.437 20.645 85.3233 20.5869C85.2096 20.5289 85.0701 20.4996 84.9039 20.4996L84.904 20.4995Z" fill="#75869A"/>
</svg>
