<svg width="12" height="25" viewBox="0 0 12 25" fill="none" xmlns="http://www.w3.org/2000/svg">
<path d="M9.47998 15.839C9.76373 15.6389 10.0342 15.4119 10.2877 15.1573C10.2884 15.1566 10.2891 15.1558 10.2899 15.1548C12.1866 13.2486 12.5463 10.3018 11.1643 7.98836L6.59983 0.346565C6.47118 0.131035 6.24422 0 5.99998 0C5.75574 0 5.52878 0.131035 5.40013 0.346565L0.835852 7.98836C-0.546334 10.3018 -0.186682 13.2486 1.71008 15.155C1.71081 15.1558 1.71155 15.1566 1.71247 15.1573C1.95983 15.406 2.22373 15.6282 2.50032 15.8247L0.916346 24.1253C0.875364 24.3402 0.929394 24.563 1.06337 24.7324C1.19734 24.9018 1.39747 25 1.60863 25H10.5352C10.749 25 10.9511 24.8995 11.0851 24.7267C11.2191 24.5541 11.2703 24.3275 11.2248 24.111L9.47998 15.839ZM2.03536 8.76026L5.99998 2.1225L9.9646 8.76026C10.9941 10.4834 10.7238 12.6806 9.30723 14.1037C9.30631 14.1045 9.30557 14.1052 9.30484 14.106C7.48214 15.9359 4.51764 15.9357 2.69494 14.1058C2.6942 14.105 2.69347 14.1043 2.69273 14.1037C1.27618 12.6808 1.00585 10.4836 2.03536 8.76026ZM5.99998 16.9386C6.7406 16.9386 7.48104 16.8032 8.1816 16.5331L8.99646 20.3972H3.06672L3.80495 16.5277C4.50937 16.8015 5.25458 16.9386 5.99998 16.9386V16.9386ZM2.46779 23.5352L2.78719 21.862H9.30557L9.65843 23.5352H2.46779Z" fill="#75869A"/>
</svg>
