<svg id="bus" width="46" height="19" viewBox="0 0 46 19" fill='#75869A' xmlns="http://www.w3.org/2000/svg">
<path d="M45.2333 0H2.3C1.87683 0 1.53336 0.343471 1.53336 0.766634V8.88256L0.224609 10.1913C0.0804999 10.3354 0 10.5302 0 10.7333V16.1C0 16.5231 0.343472 16.8666 0.766635 16.8666H11.1596C11.6916 17.779 12.6699 18.4 13.8 18.4C14.93 18.4 15.9083 17.779 16.4404 16.8666H31.8603C32.3924 17.779 33.3707 18.4 34.5007 18.4C35.6531 18.4 36.6467 17.7536 37.1703 16.8122L45.3706 15.321C45.7347 15.2544 46 14.9369 46 14.5666V0.766634C45.9999 0.343471 45.6564 0 45.2333 0ZM8.43335 12.65C8.43335 12.8616 8.26166 13.0333 8.04998 13.0333H4.98335C4.77177 13.0333 4.59999 12.8616 4.59999 12.65V4.21663C4.59999 4.00505 4.77168 3.83327 4.98335 3.83327H8.04998C8.26157 3.83327 8.43335 4.00496 8.43335 4.21663V12.65ZM13.8 16.8666C12.9544 16.8666 12.2666 16.1789 12.2666 15.3332C12.2666 14.4875 12.9544 13.8 13.8 13.8C14.6456 13.8 15.3333 14.4876 15.3333 15.3333C15.3333 16.179 14.6456 16.8666 13.8 16.8666ZM16.8666 7.28335C16.8666 7.49493 16.6949 7.66671 16.4832 7.66671H10.35C10.1384 7.66671 9.96662 7.49502 9.96662 7.28335V4.21672C9.96662 4.00514 10.1383 3.83336 10.35 3.83336H16.4833C16.6949 3.83336 16.8667 4.00505 16.8667 4.21672V7.28335H16.8666ZM26.0666 7.28335C26.0666 7.49493 25.8949 7.66671 25.6832 7.66671H18.7832C18.5717 7.66671 18.3999 7.49502 18.3999 7.28335V4.21672C18.3999 4.00514 18.5716 3.83336 18.7832 3.83336H25.6832C25.8948 3.83336 26.0666 4.00505 26.0666 4.21672V7.28335ZM27.9833 7.66662C27.7717 7.66662 27.5999 7.49493 27.5999 7.28326V4.21663C27.5999 4.00505 27.7716 3.83327 27.9833 3.83327H34.8833C35.0949 3.83327 35.2667 4.00496 35.2667 4.21663V7.28326C35.2667 7.49484 35.095 7.66662 34.8833 7.66662H27.9833ZM34.4999 16.8666C33.6543 16.8666 32.9666 16.1789 32.9666 15.3332C32.9666 14.4875 33.6543 13.8 34.4999 13.8C35.3455 13.8 36.0333 14.4876 36.0333 15.3333C36.0333 16.179 35.3455 16.8666 34.4999 16.8666ZM44.4666 7.28335C44.4666 7.49493 44.2949 7.66671 44.0832 7.66671H37.1832C36.9716 7.66671 36.7998 7.49502 36.7998 7.28335V4.21672C36.7998 4.00514 36.9715 3.83336 37.1832 3.83336H44.0832C44.2948 3.83336 44.4666 4.00505 44.4666 4.21672V7.28335Z" />
</svg>
