<svg width="21" height="21" viewBox="0 0 21 21" fill="none" xmlns="http://www.w3.org/2000/svg">
<path d="M18.5391 1.64075H17.5547V0.00012207H15.9141V1.64075H5.08594V0.00012207H3.44531V1.64075H2.46094C1.10398 1.64075 0 2.74472 0 4.10168V18.5392C0 19.8961 1.10398 21.0001 2.46094 21.0001H18.5391C19.896 21.0001 21 19.8961 21 18.5392V4.10168C21 2.74472 19.896 1.64075 18.5391 1.64075ZM19.3594 18.5392C19.3594 18.9915 18.9914 19.3595 18.5391 19.3595H2.46094C2.00862 19.3595 1.64062 18.9915 1.64062 18.5392V7.71106H19.3594V18.5392ZM19.3594 6.07043H1.64062V4.10168C1.64062 3.64936 2.00862 3.28137 2.46094 3.28137H3.44531V4.922H5.08594V3.28137H15.9141V4.922H17.5547V3.28137H18.5391C18.9914 3.28137 19.3594 3.64936 19.3594 4.10168V6.07043Z" fill="#B8C1CB"/>
<path d="M4.75781 9.43384H3.11719V11.0745H4.75781V9.43384Z" fill="#B8C1CB"/>
<path d="M8.03906 9.43384H6.39844V11.0745H8.03906V9.43384Z" fill="#B8C1CB"/>
<path d="M11.3203 9.43384H9.67969V11.0745H11.3203V9.43384Z" fill="#B8C1CB"/>
<path d="M14.6016 9.43384H12.9609V11.0745H14.6016V9.43384Z" fill="#B8C1CB"/>
<path d="M17.8828 9.43384H16.2422V11.0745H17.8828V9.43384Z" fill="#B8C1CB"/>
<path d="M4.75781 12.7151H3.11719V14.3557H4.75781V12.7151Z" fill="#B8C1CB"/>
<path d="M8.03906 12.7151H6.39844V14.3557H8.03906V12.7151Z" fill="#B8C1CB"/>
<path d="M11.3203 12.7151H9.67969V14.3557H11.3203V12.7151Z" fill="#B8C1CB"/>
<path d="M14.6016 12.7151H12.9609V14.3557H14.6016V12.7151Z" fill="#B8C1CB"/>
<path d="M4.75781 15.9962H3.11719V17.6368H4.75781V15.9962Z" fill="#B8C1CB"/>
<path d="M8.03906 15.9962H6.39844V17.6368H8.03906V15.9962Z" fill="#B8C1CB"/>
<path d="M11.3203 15.9962H9.67969V17.6368H11.3203V15.9962Z" fill="#B8C1CB"/>
<path d="M14.6016 15.9962H12.9609V17.6368H14.6016V15.9962Z" fill="#B8C1CB"/>
<path d="M17.8828 12.7151H16.2422V14.3557H17.8828V12.7151Z" fill="#B8C1CB"/>
</svg>
