<svg width="36" height="25" viewBox="0 0 36 25" fill="none" xmlns="http://www.w3.org/2000/svg">
<path d="M23.15 5.5C23.05 5.4 23 5.25 23 5.15C23 5.05 23.05 4.9 23.15 4.8L23.85 4.1C24.05 3.9 24.35 3.9 24.55 4.1L24.6 4.15L27.35 7.1C27.45 7.2 27.6 7.2 27.7 7.1L34.4 0.15H34.45C34.65 -0.05 34.95 -0.05 35.15 0.15L35.85 0.85C36.05 1.05 36.05 1.35 35.85 1.55L27.85 9.85C27.75 9.95 27.65 10 27.5 10C27.35 10 27.25 9.95 27.15 9.85L23.25 5.65L23.15 5.5Z" fill="#75869A"/>
<path d="M21.3379 16.8457H19.0918V15.3809H16.6381C18.1336 14.1714 19.0918 12.3226 19.0918 10.2539V4.26855C19.9443 3.96621 20.5566 3.1521 20.5566 2.19727C20.5566 0.985693 19.5709 0 18.3594 0H6.64062C5.42905 0 4.44336 0.985693 4.44336 2.19727C4.44336 3.1521 5.05571 3.96621 5.9082 4.26855V10.2539C5.9082 12.3226 6.86636 14.1714 8.36187 15.3809H5.9082V16.8457H3.66211C1.64282 16.8457 0 18.4885 0 20.5078V25H25V20.5078C25 18.4885 23.3572 16.8457 21.3379 16.8457ZM17.627 23.5352H15.7683L14.4873 19.0595L15.2252 16.8457H17.627V23.5352ZM13.6811 16.8457L13.1928 18.3105H11.8072L11.3189 16.8457H13.6811ZM11.8315 19.7754H13.1685L14.2446 23.5352H10.7554L11.8315 19.7754ZM17.627 4.39453V5.85938H7.37305V4.39453H17.627ZM17.627 7.32422C17.627 8.13193 16.9698 8.78906 16.1621 8.78906H8.83789C8.03018 8.78906 7.37305 8.13193 7.37305 7.32422H17.627ZM6.64062 1.46484H18.3594C18.7632 1.46484 19.0918 1.79341 19.0918 2.19727C19.0918 2.60112 18.7632 2.92969 18.3594 2.92969H6.64062C6.23677 2.92969 5.9082 2.60112 5.9082 2.19727C5.9082 1.79341 6.23677 1.46484 6.64062 1.46484ZM7.37305 10.2539V9.85977C7.80435 10.1099 8.30444 10.2539 8.83789 10.2539H16.1621C16.6956 10.2539 17.1957 10.1099 17.627 9.85977V10.2539C17.627 13.0809 15.327 15.3809 12.5 15.3809C9.673 15.3809 7.37305 13.0809 7.37305 10.2539ZM9.77481 16.8457L10.5127 19.0595L9.23174 23.5352H7.37305V16.8457H9.77481ZM1.46484 20.5078C1.46484 19.2962 2.45054 18.3105 3.66211 18.3105H5.9082V23.5352H1.46484V20.5078ZM23.5352 23.5352H19.0918V18.3105H21.3379C22.5495 18.3105 23.5352 19.2962 23.5352 20.5078V23.5352Z" fill="#75869A"/>
</svg>
