<svg id="car" width="40" height="18" viewBox="0 0 40 18" fill="#75869A" xmlns="http://www.w3.org/2000/svg">
<path d="M8.52169 11.4458C6.71449 11.4458 5.24414 12.9161 5.24414 14.7234C5.24414 16.5305 6.71442 18.0009 8.52169 18.0009C10.3289 18.0009 11.7992 16.5306 11.7992 14.7234C11.7992 12.9162 10.329 11.4458 8.52169 11.4458ZM8.52169 16.6899C7.4375 16.6899 6.55518 15.8075 6.55518 14.7234C6.55518 13.6392 7.4375 12.7568 8.52169 12.7568C9.60589 12.7568 10.4882 13.6392 10.4882 14.7234C10.4882 15.8075 9.60589 16.6899 8.52169 16.6899Z" />
<path d="M38.6748 11.4456V7.51254C38.6748 7.2307 38.4945 6.97958 38.2264 6.89047L34.5281 5.65749C33.1352 3.29836 31.2204 1.05323 26.9891 0.311867C26.9813 0.310561 26.9734 0.309256 26.9655 0.30795C19.1512 -0.772327 13.2845 0.990315 9.51793 5.54871C6.71434 5.58935 3.85237 6.17539 2.16908 7.25305C1.29729 7.81151 0.780077 8.78363 0.731528 9.81805L0.655479 11.4456C0.293671 11.4456 0 11.7393 0 12.1011V14.7231C0 15.0849 0.293671 15.3786 0.655479 15.3786H3.27747C3.64128 15.3786 3.93234 15.0797 3.93295 14.7159C3.93295 14.7126 3.93364 14.7094 3.93364 14.7054C3.94348 12.1797 5.99326 10.1345 8.52154 10.1345C11.0557 10.1345 13.11 12.1889 13.11 14.723C13.0629 15.121 13.3768 15.3785 13.7655 15.3785H25.5646C25.9284 15.3785 26.2195 15.0796 26.2201 14.7158C26.2201 14.7125 26.2207 14.7093 26.2207 14.7053C26.2305 12.1796 28.2803 10.1345 30.8086 10.1345C33.3428 10.1345 35.3971 12.1888 35.3971 14.723C35.35 15.1209 35.6639 15.3784 36.0526 15.3784H38.6746C39.0364 15.3784 39.3301 15.0848 39.3301 14.723V12.101C39.3303 11.7392 39.0366 11.4456 38.6748 11.4456ZM20.9762 5.21832C20.9762 5.39923 20.8294 5.5461 20.6484 5.5461H12.1C11.7972 5.5461 11.6595 5.17377 11.883 4.9699C14.1576 2.89653 17.0503 1.71071 20.615 1.39545C20.807 1.37839 20.9762 1.5331 20.9762 1.72584V5.21832ZM28.8514 5.22155C28.8494 5.40115 28.7032 5.54602 28.5236 5.54602H22.6149C22.434 5.54602 22.2871 5.39923 22.2871 5.21825V1.63919C22.2871 1.45759 22.432 1.30818 22.6129 1.30818C23.92 1.30688 25.3031 1.4019 26.7734 1.60516C27.4735 1.72837 28.0975 1.89752 28.6652 2.10531C28.7956 2.15317 28.8789 2.27969 28.8776 2.41865L28.8514 5.22155ZM32.2725 5.54602H30.4902C30.308 5.54602 30.1605 5.39723 30.1624 5.21502L30.1795 3.43863C30.1821 3.16792 30.4908 3.02105 30.7091 3.18098C31.4178 3.69881 32.007 4.31565 32.5321 5.01576C32.6959 5.23399 32.5451 5.54602 32.2725 5.54602Z"/>
<path d="M30.8088 11.4458C29.0016 11.4458 27.5312 12.9161 27.5312 14.7234C27.5312 16.5305 29.0015 18.0009 30.8088 18.0009C32.616 18.0009 34.0864 16.5306 34.0864 14.7234C34.0863 12.9162 32.616 11.4458 30.8088 11.4458ZM30.8088 16.6899C29.7246 16.6899 28.8423 15.8075 28.8423 14.7234C28.8423 13.6392 29.7246 12.7568 30.8088 12.7568C31.893 12.7568 32.7753 13.6392 32.7753 14.7234C32.7753 15.8075 31.893 16.6899 30.8088 16.6899Z" />
</svg>
