<svg id="card-active" width="20" height="19" viewBox="0 0 20 19" fill="none" xmlns="http://www.w3.org/2000/svg">
<path d="M7.13193 19H2.76846C1.55695 19 0.571289 18.0143 0.571289 16.8028V12.4394C0.571289 11.2278 1.55695 10.2422 2.76846 10.2422H7.13193C8.34344 10.2422 9.3291 11.2278 9.3291 12.4394V16.8028C9.3291 18.0143 8.34344 19 7.13193 19ZM7.84473 12.4394C7.84473 12.0463 7.52496 11.7266 7.13193 11.7266H2.76846C2.37544 11.7266 2.05566 12.0463 2.05566 12.4394V16.8028C2.05566 17.1959 2.37544 17.5156 2.76846 17.5156H7.13193C7.52496 17.5156 7.84473 17.1959 7.84473 16.8028V12.4394Z" fill="#707487"/>
<path d="M17.3447 19H13.04C11.8123 19 10.8135 18.0012 10.8135 16.7734V12.4688C10.8135 11.241 11.8123 10.2422 13.04 10.2422H17.3447C18.5725 10.2422 19.5713 11.241 19.5713 12.4688V16.7734C19.5713 18.0012 18.5725 19 17.3447 19ZM18.0869 12.4688C18.0869 12.0595 17.754 11.7266 17.3447 11.7266H13.04C12.6308 11.7266 12.2979 12.0595 12.2979 12.4688V16.7734C12.2979 17.1827 12.6308 17.5156 13.04 17.5156H17.3447C17.754 17.5156 18.0869 17.1827 18.0869 16.7734V12.4688Z" fill="#707487"/>
<path d="M7.13193 8.75781H2.76846C1.55695 8.75781 0.571289 7.77215 0.571289 6.56064V2.19717C0.571289 0.985662 1.55695 0 2.76846 0H7.13193C8.34344 0 9.3291 0.985662 9.3291 2.19717V6.56064C9.3291 7.77215 8.34344 8.75781 7.13193 8.75781ZM7.84473 2.19717C7.84473 1.80415 7.52496 1.48438 7.13193 1.48438H2.76846C2.37544 1.48438 2.05566 1.80415 2.05566 2.19717V6.56064C2.05566 6.95367 2.37544 7.27344 2.76846 7.27344H7.13193C7.52496 7.27344 7.84473 6.95367 7.84473 6.56064V2.19717Z" fill="#707487"/>
<path d="M17.3447 8.75781H13.04C11.8123 8.75781 10.8135 7.75898 10.8135 6.53125V2.22656C10.8135 0.998836 11.8123 0 13.04 0H17.3447C18.5725 0 19.5713 0.998836 19.5713 2.22656V6.53125C19.5713 7.75898 18.5725 8.75781 17.3447 8.75781ZM18.0869 2.22656C18.0869 1.81732 17.754 1.48438 17.3447 1.48438H13.04C12.6308 1.48438 12.2979 1.81732 12.2979 2.22656V6.53125C12.2979 6.94049 12.6308 7.27344 13.04 7.27344H17.3447C17.754 7.27344 18.0869 6.94049 18.0869 6.53125V2.22656Z" fill="#707487"/>
</svg>
