<svg width="7" height="5" viewBox="0 0 7 5" fill="none" xmlns="http://www.w3.org/2000/svg">
<path d="M0.0807692 2.75C0.0269231 2.7 0 2.625 0 2.575C0 2.525 0.0269231 2.45 0.0807692 2.4L0.457692 2.05C0.565385 1.95 0.726923 1.95 0.834615 2.05L0.861539 2.075L2.34231 3.55C2.39615 3.6 2.47692 3.6 2.53077 3.55L6.13846 0.075H6.16538C6.27308 -0.025 6.43462 -0.025 6.54231 0.075L6.91923 0.425C7.02692 0.525 7.02692 0.675 6.91923 0.775L2.61154 4.925C2.55769 4.975 2.50385 5 2.42308 5C2.34231 5 2.28846 4.975 2.23462 4.925L0.134615 2.825L0.0807692 2.75Z" fill="white"/>
</svg>
