<svg width="21" height="21" viewBox="0 0 21 21" fill="none" xmlns="http://www.w3.org/2000/svg">
<path fill-rule="evenodd" clip-rule="evenodd" d="M12.9958 10.5L20.4831 3.01277C21.1723 2.32355 21.1723 1.20612 20.4831 0.517008C19.7939 -0.172204 18.6765 -0.172204 17.9873 0.517008L10.5 8.00438L3.01259 0.516909C2.32338 -0.172303 1.20605 -0.172303 0.516835 0.516909C-0.172278 1.20612 -0.172278 2.32355 0.516835 3.01267L8.00421 10.4999L0.516835 17.9873C-0.172278 18.6765 -0.172278 19.794 0.516835 20.4831C1.20605 21.1723 2.32338 21.1723 3.01259 20.4831L10.5 12.9957L17.9873 20.4831C18.6764 21.1723 19.7939 21.1723 20.4831 20.4831C21.1723 19.7939 21.1723 18.6765 20.4831 17.9873L12.9958 10.5Z" fill="#75869A"/>
</svg>
