<svg width="21" height="21" viewBox="0 0 21 21" fill="none" xmlns="http://www.w3.org/2000/svg">
<circle cx="10.3778" cy="10.3646" r="10.127" fill="black" fill-opacity="0.7"/>
<path fill-rule="evenodd" clip-rule="evenodd" d="M11.6519 10.3652L15.4749 14.1882C15.8268 14.5401 15.8268 15.1107 15.4749 15.4626C15.123 15.8145 14.5525 15.8145 14.2006 15.4626L10.3775 11.6395L6.55436 15.4626C6.20245 15.8145 5.63193 15.8145 5.28001 15.4626C4.92815 15.1107 4.92815 14.5401 5.28001 14.1883L9.10312 10.3652L5.28001 6.54212C4.92815 6.1902 4.92815 5.61963 5.28001 5.26777C5.63193 4.91585 6.20245 4.91585 6.55436 5.26777L10.3775 9.09087L14.2006 5.26777C14.5524 4.91585 15.123 4.91585 15.4749 5.26777C15.8268 5.61968 15.8268 6.1902 15.4749 6.54212L11.6519 10.3652Z" fill="white"/>
</svg>
