<svg id="color" width="8" height="17" viewBox="0 0 8 17" fill="none" xmlns="http://www.w3.org/2000/svg">
<path d="M6.31999 10.7705C6.50915 10.6345 6.6895 10.4801 6.85845 10.307C6.85894 10.3065 6.85943 10.3059 6.85992 10.3053C8.12443 9.00907 8.3642 7.00521 7.44286 5.43208L4.39989 0.235664C4.31412 0.0891037 4.16281 0 3.99999 0C3.83716 0 3.68585 0.0891037 3.60009 0.235664L0.557235 5.43208C-0.364222 7.00521 -0.124455 9.00907 1.14005 10.3054C1.14054 10.3059 1.14103 10.3065 1.14164 10.307C1.30655 10.4761 1.48249 10.6272 1.66688 10.7608L0.610897 16.4052C0.583576 16.5514 0.619596 16.7029 0.708912 16.818C0.798227 16.9332 0.931649 17 1.07242 17H7.02348C7.16597 17 7.30074 16.9316 7.39006 16.8141C7.47937 16.6968 7.51356 16.5427 7.48317 16.3955L6.31999 10.7705ZM1.35691 5.95698L3.99999 1.4433L6.64307 5.95698C7.32941 7.12868 7.14919 8.62283 6.20482 9.59052C6.20421 9.59103 6.20372 9.59155 6.20323 9.59207C4.98809 10.8364 3.01176 10.8363 1.79663 9.59194C1.79614 9.59142 1.79565 9.5909 1.79516 9.59052C0.850787 8.62296 0.670564 7.12881 1.35691 5.95698ZM3.99999 11.5182C4.49373 11.5182 4.98736 11.4262 5.4544 11.2425L5.99764 13.8701H2.04448L2.53663 11.2389C3.00624 11.425 3.50305 11.5182 3.99999 11.5182ZM1.64519 16.0039L1.85813 14.8662H6.20372L6.43895 16.0039H1.64519Z" fill="#75869A"/>
</svg>
