<svg width="45" height="45" viewBox="0 0 45 45" fill="none" xmlns="http://www.w3.org/2000/svg">
<circle cx="22.5" cy="22.5" r="22.5" fill="#249AF3"/>
<path d="M14.2077 23.6C14.0692 23.48 14 23.3 14 23.18C14 23.06 14.0692 22.88 14.2077 22.76L15.1769 21.92C15.4538 21.68 15.8692 21.68 16.1462 21.92L16.2154 21.98L20.0231 25.52C20.1615 25.64 20.3692 25.64 20.5077 25.52L29.7846 17.18H29.8538C30.1308 16.94 30.5462 16.94 30.8231 17.18L31.7923 18.02C32.0692 18.26 32.0692 18.62 31.7923 18.86L20.7154 28.82C20.5769 28.94 20.4385 29 20.2308 29C20.0231 29 19.8846 28.94 19.7462 28.82L14.3462 23.78L14.2077 23.6Z" fill="white"/>
</svg>
