<svg width="22" height="13" viewBox="0 0 22 13" fill="none" xmlns="http://www.w3.org/2000/svg">
<path d="M21.3795 1.09433C21.3786 0.490565 20.8872 0 20.2836 0C20.2831 0 20.2826 0 20.2822 0L1.09437 0.0263667C0.80166 0.0267427 0.526585 0.14111 0.319871 0.348368C0.113198 0.555667 -0.000375141 0.831076 9.30964e-07 1.1237L0.0148349 11.9056C0.0152109 12.1983 0.129578 12.4734 0.336836 12.6801C0.543717 12.8865 0.818458 13 1.11067 13C1.11117 13 1.11171 13 1.11213 13L20.2999 12.9736C20.904 12.9728 21.395 12.4806 21.3943 11.8763L21.3795 1.09433ZM19.0798 1.0975L10.698 6.92427L2.29989 1.12057L19.0798 1.0975ZM14.2425 8.02395L19.2138 11.8793L2.16638 11.9027L7.16797 8.02395C7.40706 7.83846 7.4506 7.49431 7.26516 7.25513C7.07967 7.01603 6.73553 6.97249 6.49634 7.15794L1.10987 11.3352L1.0965 1.62108L10.3873 8.04175C10.4811 8.10656 10.5899 8.1389 10.6988 8.1389C10.8082 8.1389 10.9176 8.10618 11.0116 8.04087L20.2843 1.59484L20.2984 11.3337L14.914 7.15798C14.6751 6.97258 14.3308 7.01607 14.1453 7.25517C13.9598 7.49427 14.0033 7.8385 14.2425 8.02395Z" fill="white"/>
</svg>
