<svg width="28" height="20" viewBox="0 0 28 20" fill="none" xmlns="http://www.w3.org/2000/svg">
<path d="M27.9224 8.99983L26.5675 6.07158C26.422 5.75714 26.0959 5.55434 25.7358 5.55434H23.4902C22.9881 5.55434 22.5811 5.9427 22.5811 6.42199V7.78975H21.8826V6.66435C21.8826 6.18506 21.4755 5.7967 20.9734 5.7967H18.5528V3.42918C18.5528 2.94989 18.1457 2.56153 17.6436 2.56153H13.1711V1.7353H17.6436C18.1457 1.7353 18.5528 1.34682 18.5528 0.867649C18.5528 0.38836 18.1457 0 17.6436 0H6.88041C6.3783 0 5.97124 0.38836 5.97124 0.867649C5.97124 1.34682 6.3783 1.7353 6.88041 1.7353H11.353V2.56153H6.88041C6.3783 2.56153 5.97124 2.94989 5.97124 3.42918V4.15037H3.97662C3.47451 4.15037 3.06744 4.53873 3.06744 5.01802V9.67405H1.81835V5.01802C1.81835 4.53873 1.41129 4.15037 0.909177 4.15037C0.407069 4.15037 0 4.53885 0 5.01802V16.0656C0 16.5449 0.407069 16.9333 0.909177 16.9333C1.41129 16.9333 1.81835 16.5449 1.81835 16.0656V11.4094H3.06744V16.0656C3.06744 16.5449 3.47451 16.9333 3.97662 16.9333H7.50896L11.0981 19.7979C11.2618 19.9285 11.4681 20 11.6815 20H20.9735C21.4756 20 21.8827 19.6116 21.8827 19.1324V16.7671H22.5812V18.1349C22.5812 18.6142 22.9882 19.0026 23.4904 19.0026H25.7359C26.0961 19.0026 26.4222 18.7998 26.5676 18.4853L27.9225 15.5571C27.9736 15.4467 28 15.3273 28 15.2066V9.35025C28 9.2297 27.9736 9.1102 27.9224 8.99983ZM26.1816 15.0237L25.1436 17.2674H24.3995V15.8996C24.3995 15.4203 23.9925 15.032 23.4904 15.032H20.9735C20.4714 15.032 20.0643 15.4203 20.0643 15.8996V18.2648H12.0114L8.42226 15.4002C8.2586 15.2696 8.05228 15.1981 7.83893 15.1981H4.8858V5.88567H6.88041C7.38252 5.88567 7.78959 5.49731 7.78959 5.01802V4.29683H16.7346V6.66458C16.7346 7.14387 17.1416 7.53223 17.6437 7.53223H20.0643V8.65763C20.0643 9.13692 20.4714 9.52528 20.9735 9.52528H23.4904C23.9925 9.52528 24.3995 9.13692 24.3995 8.65763V7.28975H25.1436L26.1816 9.53338V15.0237Z" fill="#75869A"/>
</svg>
