<svg id="engine" width="24" height="17" viewBox="0 0 24 17" fill="none" xmlns="http://www.w3.org/2000/svg">
<path d="M23.9335 7.64986L22.7721 5.16084C22.6475 4.89357 22.3679 4.72119 22.0592 4.72119H20.1345C19.7041 4.72119 19.3552 5.0513 19.3552 5.45869V6.62129H18.7565V5.6647C18.7565 5.2573 18.4076 4.9272 17.9772 4.9272H15.9024V2.9148C15.9024 2.50741 15.5535 2.1773 15.1231 2.1773H11.2895V1.475H15.1231C15.5535 1.475 15.9024 1.1448 15.9024 0.737502C15.9024 0.330106 15.5535 0 15.1231 0H5.8975C5.46712 0 5.1182 0.330106 5.1182 0.737502C5.1182 1.1448 5.46712 1.475 5.8975 1.475H9.73111V2.1773H5.8975C5.46712 2.1773 5.1182 2.50741 5.1182 2.9148V3.52781H3.40853C2.97815 3.52781 2.62924 3.85792 2.62924 4.26532V8.22295H1.55859V4.26532C1.55859 3.85792 1.20967 3.52781 0.779295 3.52781C0.348916 3.52781 0 3.85802 0 4.26532V13.6558C0 14.0632 0.348916 14.3933 0.779295 14.3933C1.20967 14.3933 1.55859 14.0632 1.55859 13.6558V9.69795H2.62924V13.6558C2.62924 14.0632 2.97815 14.3933 3.40853 14.3933H6.43625L9.5127 16.8282C9.65297 16.9392 9.82982 17 10.0127 17H17.9773C18.4077 17 18.7566 16.6699 18.7566 16.2625V14.2521H19.3553V15.4147C19.3553 15.8221 19.7042 16.1522 20.1346 16.1522H22.0593C22.3681 16.1522 22.6476 15.9798 22.7722 15.7125L23.9336 13.2235C23.9773 13.1297 24 13.0282 24 12.9256V7.94771C24 7.84525 23.9773 7.74367 23.9335 7.64986ZM22.4414 12.7702L21.5517 14.6773H20.9139V13.5147C20.9139 13.1073 20.565 12.7772 20.1346 12.7772H17.9773C17.5469 12.7772 17.198 13.1073 17.198 13.5147V15.5251H10.2955L7.21908 13.0902C7.0788 12.9791 6.90196 12.9184 6.71908 12.9184H4.18783V5.00282H5.8975C6.32788 5.00282 6.67679 4.67271 6.67679 4.26532V3.6523H14.3439V5.6649C14.3439 6.07229 14.6928 6.4024 15.1232 6.4024H17.198V7.35899C17.198 7.76638 17.5469 8.09649 17.9773 8.09649H20.1346C20.565 8.09649 20.9139 7.76638 20.9139 7.35899V6.19629H21.5517L22.4414 8.10337V12.7702Z" fill="#75869A"/>
</svg>
