<svg width="20" height="18" viewBox="0 0 20 18" fill="none" xmlns="http://www.w3.org/2000/svg">
<path d="M19.8635 8.55948C18.6495 6.89117 17.1915 5.43486 15.5435 4.24463L18.362 1.28815C18.6458 1.00069 18.6537 0.526393 18.3796 0.228748C18.1056 -0.0688974 17.6534 -0.0771507 17.3696 0.21031C17.3637 0.216324 17.3578 0.22247 17.3521 0.228748L14.2728 3.4557C12.9621 2.69903 11.4958 2.28764 10 2.25691C4.57147 2.25691 0.315095 8.30174 0.136512 8.55944C-0.0455039 8.82209 -0.0455039 9.17786 0.136512 9.44052C1.35048 11.1088 2.80849 12.5651 4.45646 13.7554L1.63792 16.7118C1.35416 16.9993 1.34629 17.4736 1.62034 17.7713C1.89439 18.0689 2.34656 18.0771 2.63032 17.7897C2.63626 17.7837 2.64212 17.7775 2.6479 17.7713L5.72714 14.5443C7.03783 15.301 8.50416 15.7124 9.99996 15.7431C15.4285 15.7431 19.6849 9.69826 19.8635 9.44052C20.0455 9.17791 20.0455 8.82214 19.8635 8.55948ZM5.49503 12.6683C4.03995 11.6517 2.73566 10.4157 1.62436 9.00002C2.67577 7.66413 6.08573 3.75536 10 3.75536C11.1137 3.77898 12.2086 4.06043 13.2064 4.57951L11.9664 5.88019C10.3258 4.73768 8.1128 5.20654 7.0236 6.92744C6.23016 8.18101 6.23016 9.8113 7.0236 11.0649L5.49503 12.6683ZM11.9286 8.03724C12.0683 8.33708 12.1416 8.66625 12.1428 9.00002C12.1428 10.2414 11.1835 11.2477 10 11.2477C9.6818 11.2465 9.36799 11.1696 9.08214 11.023L11.9286 8.03724ZM8.07145 9.96276C7.93167 9.66292 7.85838 9.33375 7.85717 8.99998C7.85717 7.7586 8.81655 6.75227 10 6.75227C10.3182 6.75355 10.632 6.83041 10.9179 6.97704L8.07145 9.96276ZM10 14.2446C8.88636 14.221 7.7915 13.9396 6.79362 13.4205L8.03362 12.1198C9.67423 13.2623 11.8872 12.7935 12.9764 11.0726C13.7698 9.81898 13.7698 8.1887 12.9764 6.93512L14.505 5.33174C15.9601 6.3483 17.2643 7.58436 18.3757 8.99998C17.3242 10.3359 13.9142 14.2446 10 14.2446Z" fill="#B8C1CB"/>
</svg>
