<svg width="7" height="13" viewBox="0 0 7 13" fill="none" xmlns="http://www.w3.org/2000/svg">
<path d="M6.29834 0.574052L4.72854 0.571533C2.96493 0.571533 1.8252 1.74085 1.8252 3.55069V4.92428H0.246836C0.110447 4.92428 0 5.03485 0 5.17124V7.16142C0 7.29781 0.110573 7.40826 0.246836 7.40826H1.8252V12.4301C1.8252 12.5665 1.93565 12.6769 2.07204 12.6769H4.13135C4.26774 12.6769 4.37819 12.5664 4.37819 12.4301V7.40826H6.22366C6.36005 7.40826 6.4705 7.29781 6.4705 7.16142L6.47125 5.17124C6.47125 5.10576 6.44519 5.04304 6.39897 4.9967C6.35275 4.95035 6.28978 4.92428 6.22429 4.92428H4.37819V3.75987C4.37819 3.20021 4.51155 2.9161 5.2406 2.9161L6.29809 2.91572C6.43436 2.91572 6.5448 2.80515 6.5448 2.66888V0.820888C6.5448 0.68475 6.43448 0.574304 6.29834 0.574052Z" fill="#249AF3"/>
</svg>
