<svg id="facebook" width="7" height="13" viewBox="0 0 7 13" fill="none" xmlns="http://www.w3.org/2000/svg">
<path d="M6.29834 0.573808L4.72854 0.571289C2.96493 0.571289 1.8252 1.74061 1.8252 3.55045V4.92404H0.246836C0.110447 4.92404 0 5.03461 0 5.171V7.16118C0 7.29756 0.110573 7.40801 0.246836 7.40801H1.8252V12.4299C1.8252 12.5663 1.93565 12.6767 2.07204 12.6767H4.13135C4.26774 12.6767 4.37819 12.5661 4.37819 12.4299V7.40801H6.22366C6.36005 7.40801 6.4705 7.29756 6.4705 7.16118L6.47125 5.171C6.47125 5.10551 6.44519 5.0428 6.39897 4.99645C6.35275 4.95011 6.28978 4.92404 6.22429 4.92404H4.37819V3.75963C4.37819 3.19996 4.51155 2.91585 5.2406 2.91585L6.29809 2.91547C6.43436 2.91547 6.5448 2.8049 6.5448 2.66864V0.820644C6.5448 0.684506 6.43448 0.57406 6.29834 0.573808Z" fill="white"/>
</svg>
