<svg id="google" width="101" height="34" viewBox="0 0 101 34" fill="none" xmlns="http://www.w3.org/2000/svg">
<path fill-rule="evenodd" clip-rule="evenodd" d="M2.19744 0.000366211H98.8026C100.012 0.000366211 101 0.988815 101 2.19778V31.5261C101 32.7352 100.012 33.7236 98.8026 33.7236H2.19744C0.98841 33.7236 0 32.7352 0 31.5261V2.19778C0 0.988815 0.98841 0.000366211 2.19744 0.000366211V0.000366211ZM43.9895 13.2217V8.94348H45.3819C45.7278 8.94348 46.0142 9.00053 46.2409 9.11519C46.4676 9.22929 46.648 9.38469 46.781 9.58033C46.9144 9.77597 47.0072 10.0017 47.0591 10.258C47.1111 10.5142 47.1371 10.7858 47.1371 11.0731C47.1371 11.3646 47.1081 11.6402 47.05 11.9005C46.9914 12.1609 46.8925 12.3887 46.7529 12.5848C46.6138 12.7804 46.4284 12.9353 46.1971 13.05C45.9663 13.1646 45.6758 13.2217 45.3259 13.2217H43.9894H43.9895ZM44.5326 9.34906V12.8156H45.2637C45.3259 12.8156 45.4028 12.8115 45.4945 12.8034C45.5862 12.7947 45.681 12.7738 45.7788 12.7407C45.8766 12.7076 45.9734 12.6556 46.0692 12.5848C46.165 12.513 46.2516 12.4152 46.3286 12.2898C46.4055 12.165 46.4676 12.0081 46.5155 11.8175C46.5634 11.628 46.5874 11.3956 46.5874 11.12C46.5874 10.8408 46.566 10.6024 46.5221 10.4067C46.4783 10.2101 46.4212 10.0465 46.3504 9.91557C46.2796 9.78414 46.1981 9.68119 46.1069 9.60527C46.0152 9.5304 45.9214 9.47433 45.8257 9.43667C45.7299 9.39894 45.6361 9.37501 45.5444 9.36484C45.4527 9.35464 45.3696 9.34905 45.2948 9.34905H44.5326V9.34906ZM50.5099 11.7039C50.5099 11.8996 50.488 12.0911 50.4447 12.2786C50.4009 12.4661 50.326 12.6337 50.2195 12.7815C50.1135 12.9292 49.9709 13.0479 49.7921 13.1376C49.6127 13.2268 49.3901 13.2716 49.1236 13.2716C48.8734 13.2716 48.6646 13.2288 48.4959 13.1437C48.3273 13.0581 48.1928 12.945 48.0929 12.8034C47.9931 12.6618 47.9212 12.4972 47.8774 12.3097C47.8336 12.1222 47.8117 11.9245 47.8117 11.7166C47.8117 11.5123 47.8366 11.3147 47.8871 11.1231C47.937 10.9315 48.016 10.7609 48.124 10.611C48.2325 10.4612 48.3742 10.3405 48.5489 10.2488C48.7237 10.1571 48.9361 10.1112 49.1858 10.1112C49.44 10.1112 49.6525 10.1571 49.8231 10.2488C49.9938 10.3405 50.1304 10.4597 50.2323 10.608C50.3342 10.7557 50.406 10.9254 50.4478 11.117C50.489 11.3085 50.5099 11.5042 50.5099 11.7039H50.5099ZM49.979 11.7166C49.979 11.5791 49.9698 11.4395 49.951 11.2978C49.9322 11.1562 49.894 11.0263 49.8354 10.9075C49.7773 10.7888 49.6963 10.692 49.5918 10.6171C49.4879 10.5423 49.3524 10.5046 49.1857 10.5046C49.0151 10.5046 48.876 10.5412 48.7675 10.6141C48.6595 10.687 48.5739 10.7807 48.5112 10.8954C48.449 11.0095 48.4052 11.1399 48.3803 11.2856C48.3553 11.4313 48.3426 11.575 48.3426 11.7166C48.3426 11.8664 48.3532 12.0121 48.3742 12.1538C48.395 12.2954 48.4353 12.4192 48.4959 12.5252C48.556 12.6317 48.6416 12.7167 48.7517 12.7814C48.8622 12.8457 49.0069 12.8783 49.1857 12.8783C49.3524 12.8783 49.4869 12.8436 49.5888 12.7748C49.6906 12.7066 49.7712 12.6159 49.8292 12.5033C49.8878 12.3912 49.9271 12.2659 49.9479 12.1288C49.9689 11.9913 49.979 11.8537 49.979 11.7166L49.979 11.7166ZM54.0076 12.7157L54.2328 11.7849L54.6699 10.1739H55.182L54.2761 13.2217H53.7202L53.277 11.8099L52.9708 10.7298H52.9397L52.6585 11.8099L52.2524 13.2217H51.6966L50.8034 10.1739H51.316L51.7465 11.7477L51.9839 12.7157H52.0155L52.2713 11.71L52.7084 10.1739H53.2021L53.708 11.7788L53.9704 12.7157H54.0076V12.7157ZM57.5802 13.2217V11.2107C57.5802 11.1062 57.5751 11.0115 57.5644 10.9264C57.5542 10.8408 57.5312 10.7679 57.4955 10.7079C57.4604 10.6472 57.4064 10.6013 57.3356 10.5702C57.2648 10.5392 57.1679 10.5234 57.0472 10.5234C56.9005 10.5234 56.742 10.5544 56.5703 10.6171C56.3987 10.6798 56.2468 10.7481 56.1123 10.8235V13.2217H55.6064V10.1739H56.0996L56.1062 10.4357L56.125 10.4485C56.2967 10.3405 56.4796 10.2559 56.6763 10.1958C56.8725 10.1352 57.0442 10.1051 57.1899 10.1051C57.3988 10.1051 57.5623 10.1352 57.6821 10.1958C57.8008 10.2559 57.8904 10.3328 57.9516 10.4266C58.0122 10.5203 58.0494 10.6253 58.0642 10.7419C58.0789 10.8586 58.0861 10.9733 58.0861 11.0854V13.2217H57.5802V13.2217ZM59.4163 13.2217H58.9105V8.78092H59.4225L59.4163 13.2217ZM62.8763 11.7039C62.8763 11.8996 62.8544 12.0911 62.8111 12.2786C62.7673 12.4661 62.6924 12.6337 62.5859 12.7815C62.4799 12.9292 62.3373 13.0479 62.1584 13.1376C61.9791 13.2268 61.7565 13.2716 61.49 13.2716C61.2398 13.2716 61.0309 13.2288 60.8623 13.1437C60.6936 13.0581 60.5591 12.945 60.4593 12.8034C60.3594 12.6618 60.2876 12.4972 60.2438 12.3097C60.2 12.1222 60.1781 11.9245 60.1781 11.7166C60.1781 11.5123 60.203 11.3147 60.2535 11.1231C60.3034 10.9315 60.3824 10.7609 60.4903 10.611C60.5989 10.4612 60.7405 10.3405 60.9153 10.2488C61.09 10.1571 61.3025 10.1112 61.5521 10.1112C61.8064 10.1112 62.0188 10.1571 62.1895 10.2488C62.3602 10.3405 62.4967 10.4597 62.5986 10.608C62.7005 10.7557 62.7724 10.9254 62.8142 11.117C62.8554 11.3085 62.8763 11.5042 62.8763 11.7039ZM62.3454 11.7166C62.3454 11.5791 62.3363 11.4395 62.3174 11.2978C62.2986 11.1562 62.2603 11.0263 62.2018 10.9075C62.1437 10.7888 62.0627 10.692 61.9582 10.6171C61.8543 10.5423 61.7187 10.5046 61.5522 10.5046C61.3815 10.5046 61.2424 10.5412 61.1338 10.6141C61.0258 10.687 60.9402 10.7807 60.8776 10.8954C60.8154 11.0095 60.7716 11.1399 60.7466 11.2856C60.7217 11.4313 60.7089 11.575 60.7089 11.7166C60.7089 11.8664 60.7197 12.0121 60.7405 12.1538C60.7614 12.2954 60.8017 12.4192 60.8623 12.5252C60.9224 12.6317 61.008 12.7167 61.118 12.7814C61.2286 12.8457 61.3733 12.8783 61.5522 12.8783C61.7187 12.8783 61.8532 12.8436 61.9551 12.7748C62.057 12.7066 62.1376 12.6159 62.1956 12.5033C62.2542 12.3912 62.2935 12.2659 62.3143 12.1288C62.3352 11.9913 62.3454 11.8537 62.3454 11.7166V11.7166ZM64.5943 11.8165C64.3859 11.8247 64.2321 11.8766 64.1322 11.9724C64.0318 12.0682 63.9819 12.193 63.9819 12.3474C63.9819 12.5262 64.0257 12.6597 64.1133 12.7468C64.2004 12.8345 64.3442 12.8783 64.5444 12.8783C64.6774 12.8783 64.8139 12.8436 64.9535 12.7748C65.0926 12.7066 65.2332 12.6077 65.3749 12.4783V11.7666L64.5943 11.8165V11.8165ZM65.8685 12.8406H66.2807L66.3118 13.1407C66.2369 13.1778 66.1503 13.2079 66.0525 13.2308C65.9547 13.2538 65.864 13.2655 65.7809 13.2655C65.6602 13.2655 65.5664 13.2405 65.4997 13.1906C65.4334 13.1407 65.3957 13.0363 65.3876 12.8783L65.381 12.8717C65.2648 12.972 65.1522 13.049 65.0437 13.1029C64.9356 13.157 64.8368 13.1967 64.7471 13.2217C64.6575 13.2466 64.5765 13.2614 64.5036 13.2655C64.4307 13.2696 64.3717 13.2716 64.3258 13.2716C64.1506 13.2716 64.0058 13.2426 63.8917 13.184C63.7771 13.1259 63.6864 13.053 63.6196 12.9654C63.5534 12.8783 63.5065 12.7835 63.4795 12.6816C63.452 12.5792 63.4388 12.4845 63.4388 12.3973C63.4388 12.1308 63.5336 11.9174 63.7231 11.7569C63.9126 11.5969 64.203 11.5042 64.5943 11.4792L65.3749 11.4293V11.2357C65.3749 10.9814 65.329 10.8026 65.2373 10.6982C65.1461 10.5942 64.9734 10.5423 64.7191 10.5423C64.5693 10.5423 64.413 10.5565 64.2509 10.5861C64.0884 10.6151 63.9299 10.6569 63.7761 10.7109L63.6635 10.3675C63.8382 10.288 64.0298 10.2279 64.2382 10.1861C64.4465 10.1443 64.6463 10.1239 64.8378 10.1239C65.1583 10.1239 65.4105 10.1989 65.5934 10.3486C65.7768 10.4984 65.8685 10.7609 65.8685 11.1353V12.8406H65.8685ZM68.8786 12.9343C68.8705 12.9262 68.8664 12.9221 68.8664 12.9221C68.7411 13.026 68.5943 13.1081 68.4257 13.1687C68.257 13.2288 68.092 13.2594 67.9295 13.2594C67.7088 13.2594 67.5254 13.2186 67.3797 13.1376C67.234 13.0561 67.1173 12.9471 67.0302 12.8095C66.9425 12.6719 66.8799 12.513 66.8427 12.3316C66.805 12.1507 66.7861 11.9581 66.7861 11.7538C66.7861 11.5205 66.808 11.3039 66.8519 11.1042C66.8957 10.9045 66.9665 10.7308 67.0643 10.583C67.1622 10.4348 67.29 10.3186 67.4485 10.233C67.6064 10.1479 67.798 10.1051 68.0232 10.1051C68.0813 10.1051 68.1469 10.1092 68.2198 10.1174C68.2927 10.126 68.3666 10.1392 68.4415 10.1581C68.5164 10.1769 68.5902 10.1999 68.6631 10.2269C68.7359 10.2539 68.8037 10.288 68.8664 10.3298V8.78092H69.3723V13.2217H68.8786V12.9343H68.8786ZM68.8664 10.7298C68.8328 10.7048 68.7869 10.6798 68.7288 10.6549C68.6708 10.6299 68.6061 10.606 68.5352 10.583C68.4644 10.5601 68.3905 10.5423 68.3136 10.5295C68.2366 10.5173 68.1648 10.5112 68.098 10.5112C67.9895 10.5112 67.8887 10.5306 67.7949 10.5702C67.7012 10.61 67.6182 10.6778 67.5453 10.773C67.4724 10.8688 67.4154 10.9972 67.3736 11.1572C67.3318 11.3177 67.3109 11.5184 67.3109 11.7599C67.3109 11.9724 67.3298 12.1497 67.3675 12.2908C67.4047 12.4324 67.4556 12.5461 67.5203 12.6317C67.5851 12.7167 67.664 12.7774 67.7577 12.8125C67.8515 12.8482 67.9544 12.8655 68.067 12.8655C68.1292 12.8655 68.199 12.8563 68.2759 12.8375C68.3528 12.8187 68.4293 12.7937 68.5042 12.7626C68.579 12.7315 68.6488 12.6979 68.713 12.6627C68.7777 12.6271 68.8287 12.5909 68.8664 12.5532V10.7298V10.7298ZM72.1072 10.5423H71.6829V10.2671L72.1139 10.155V9.65933C72.1139 9.35465 72.1959 9.12131 72.3605 8.95977C72.525 8.79878 72.7696 8.71829 73.0942 8.71829C73.1818 8.71829 73.2826 8.72339 73.3973 8.73409C73.512 8.74428 73.623 8.76514 73.7315 8.79417L73.6627 9.16813C73.5878 9.15541 73.5089 9.14525 73.4253 9.13707C73.3423 9.12844 73.2674 9.12436 73.2006 9.12436C73.005 9.12436 72.8573 9.16306 72.7569 9.24003C72.657 9.31692 72.6071 9.45551 72.6071 9.65525V10.1673H73.5002V10.5423H72.6071L72.601 13.2217H72.1073V10.5423L72.1072 10.5423ZM74.6685 10.6044C74.7434 10.5382 74.8269 10.4745 74.9181 10.4144C75.0098 10.3537 75.1036 10.3008 75.1994 10.2549C75.2951 10.2091 75.3889 10.1719 75.4806 10.1423C75.5723 10.1133 75.6574 10.0985 75.7364 10.0985C75.7822 10.0985 75.8199 10.1092 75.849 10.1301C75.878 10.1509 75.8928 10.1922 75.8928 10.2549C75.8928 10.2799 75.8877 10.313 75.877 10.3548C75.8668 10.3965 75.8541 10.4393 75.8398 10.4826C75.825 10.5265 75.8072 10.5693 75.7863 10.611C75.7659 10.6523 75.743 10.688 75.718 10.717C75.5427 10.7379 75.367 10.7598 75.1902 10.7827C75.0129 10.8057 74.8371 10.8276 74.6624 10.8485V13.2217H74.1564V10.1739H74.6496L74.6313 10.5795L74.6685 10.6044L74.6685 10.6044ZM78.9156 11.7039C78.9156 11.8996 78.8937 12.0911 78.8504 12.2786C78.8065 12.4661 78.7317 12.6337 78.6252 12.7815C78.5192 12.9292 78.3766 13.0479 78.1978 13.1376C78.0184 13.2268 77.7957 13.2716 77.5293 13.2716C77.2791 13.2716 77.0702 13.2288 76.9016 13.1437C76.733 13.0581 76.5984 12.945 76.4986 12.8034C76.3987 12.6618 76.3269 12.4972 76.2831 12.3097C76.2392 12.1222 76.2173 11.9245 76.2173 11.7166C76.2173 11.5123 76.2423 11.3147 76.2928 11.1231C76.3427 10.9315 76.4216 10.7609 76.5297 10.611C76.6381 10.4612 76.7798 10.3405 76.9546 10.2488C77.1293 10.1571 77.3418 10.1112 77.5914 10.1112C77.8457 10.1112 78.0581 10.1571 78.2288 10.2488C78.3995 10.3405 78.536 10.4597 78.6379 10.608C78.7398 10.7557 78.8117 10.9254 78.8534 11.117C78.8947 11.3085 78.9156 11.5042 78.9156 11.7039H78.9156ZM78.3847 11.7166C78.3847 11.5791 78.3755 11.4395 78.3567 11.2978C78.3378 11.1562 78.2996 11.0263 78.241 10.9075C78.1829 10.7888 78.102 10.692 77.9975 10.6171C77.8936 10.5423 77.758 10.5046 77.5914 10.5046C77.4207 10.5046 77.2816 10.5412 77.1731 10.6141C77.0651 10.687 76.9795 10.7807 76.9169 10.8954C76.8547 11.0095 76.8109 11.1399 76.7859 11.2856C76.7609 11.4313 76.7482 11.575 76.7482 11.7166C76.7482 11.8664 76.7589 12.0121 76.7798 12.1538C76.8007 12.2954 76.8409 12.4192 76.9015 12.5252C76.9617 12.6317 77.0473 12.7167 77.1573 12.7814C77.2679 12.8457 77.4126 12.8783 77.5914 12.8783C77.758 12.8783 77.8925 12.8436 77.9944 12.7748C78.0963 12.7066 78.1768 12.6159 78.2349 12.5033C78.2935 12.3912 78.3327 12.2659 78.3536 12.1288C78.3745 11.9913 78.3847 11.8537 78.3847 11.7166V11.7166ZM83.3879 13.2217V11.2107C83.3879 11.1022 83.3808 11.0054 83.366 10.9203C83.3517 10.8347 83.3242 10.7629 83.285 10.7048C83.2452 10.6462 83.1892 10.6024 83.1164 10.5734C83.0435 10.5443 82.9488 10.5295 82.8321 10.5295C82.7653 10.5295 82.6925 10.5372 82.6135 10.5514C82.5345 10.5662 82.455 10.5851 82.3761 10.608C82.2971 10.6309 82.2212 10.659 82.1483 10.692C82.0755 10.7252 82.0097 10.7609 81.9511 10.7985C81.9679 10.8689 81.9786 10.9417 81.9827 11.0171C81.9868 11.092 81.9888 11.1562 81.9888 11.2107V13.2217H81.4829V11.1103C81.4829 10.9106 81.4381 10.7649 81.3484 10.6732C81.2592 10.582 81.1395 10.5362 80.9897 10.5362C80.8394 10.5362 80.6845 10.5642 80.524 10.6202C80.3641 10.6763 80.2173 10.746 80.0838 10.8296V13.2217H79.5779V10.1739H80.0711L80.0777 10.4485L80.1017 10.4674C80.2724 10.3548 80.4471 10.2687 80.6259 10.208C80.8043 10.1479 80.9729 10.1174 81.1309 10.1174C81.2934 10.1174 81.4361 10.1464 81.5609 10.205C81.6857 10.2631 81.7881 10.3568 81.8671 10.4862C81.942 10.4358 82.024 10.3884 82.1127 10.3425C82.2023 10.2967 82.2961 10.2559 82.3939 10.2208C82.4917 10.1851 82.5895 10.1581 82.6874 10.1393C82.7852 10.1204 82.8769 10.1112 82.964 10.1112C83.1805 10.1112 83.3502 10.1433 83.4735 10.208C83.5953 10.2727 83.6875 10.3537 83.7501 10.4516C83.8128 10.5494 83.8521 10.659 83.8689 10.7797C83.8857 10.9004 83.8938 11.0171 83.8938 11.1292V13.2217H83.3879L83.3879 13.2217ZM46.5232 17.8728C46.8034 17.8728 47.0638 17.8937 47.3027 17.9355C47.5417 17.9768 47.7521 18.0287 47.9339 18.0914L47.7857 18.7303C47.5676 18.6681 47.3582 18.6238 47.1585 18.5978C46.9583 18.5719 46.7749 18.5591 46.6088 18.5591C46.0162 18.5591 45.5796 18.7461 45.2989 19.1205C45.0182 19.4945 44.878 20.0219 44.878 20.703C44.878 20.9889 44.9015 21.2528 44.9484 21.4943C44.9947 21.7358 45.0767 21.9437 45.1939 22.1179C45.3106 22.2921 45.4665 22.4287 45.6616 22.527C45.8562 22.6258 46.1018 22.6753 46.3983 22.6753C46.5176 22.6753 46.6592 22.6661 46.8233 22.6483C46.9868 22.6299 47.1259 22.6055 47.24 22.5739V20.5314H48.0511V23.1119C47.7704 23.2056 47.4831 23.2744 47.1896 23.3188C46.8961 23.3625 46.6139 23.385 46.3438 23.385C45.8914 23.385 45.5134 23.3162 45.2092 23.1781C44.905 23.0406 44.6595 22.8495 44.4725 22.6055C44.2855 22.3609 44.1515 22.0736 44.071 21.744C43.9905 21.4138 43.9502 21.0536 43.9502 20.6638C43.9502 20.3678 43.9864 20.0544 44.0593 19.7243C44.1321 19.3946 44.2646 19.093 44.4572 18.8199C44.6493 18.5474 44.9116 18.3212 45.2444 18.1418C45.577 17.9625 46.003 17.8728 46.5232 17.8728ZM52.4949 21.4123C52.4949 21.667 52.4638 21.9126 52.4012 22.149C52.339 22.3859 52.2361 22.5963 52.0934 22.7808C51.9502 22.9652 51.7618 23.1119 51.5279 23.2209C51.294 23.3305 51.0031 23.385 50.6552 23.385C50.3224 23.385 50.0443 23.3331 49.8206 23.2291C49.5974 23.1252 49.4166 22.9835 49.279 22.8042C49.1409 22.6248 49.0426 22.4154 48.9825 22.1765C48.9229 21.9375 48.8928 21.6853 48.8928 21.4204C48.8928 21.1606 48.9269 20.9094 48.9942 20.6679C49.062 20.4264 49.1685 20.2129 49.3141 20.0285C49.4594 19.844 49.6479 19.6958 49.8792 19.5842C50.1105 19.4726 50.3897 19.4165 50.7173 19.4165C51.05 19.4165 51.3307 19.4726 51.5595 19.5842C51.7878 19.6958 51.9712 19.844 52.1087 20.0285C52.2468 20.2129 52.3456 20.4264 52.4053 20.6679C52.4649 20.9094 52.4949 21.1575 52.4949 21.4123H52.4949ZM51.6058 21.4204C51.6058 21.2589 51.5956 21.0969 51.5748 20.9328C51.5539 20.7692 51.5111 20.621 51.4464 20.4885C51.3812 20.3561 51.2905 20.2481 51.1733 20.165C51.0566 20.082 50.9043 20.0402 50.7173 20.0402C50.5303 20.0402 50.3754 20.0804 50.2531 20.1609C50.1314 20.2414 50.0351 20.3484 49.9648 20.4809C49.895 20.6134 49.8455 20.7616 49.817 20.9252C49.788 21.0887 49.7737 21.2538 49.7737 21.4204C49.7737 21.6023 49.7854 21.7734 49.8089 21.935C49.8323 22.096 49.8777 22.2376 49.9454 22.3599C50.0132 22.4817 50.109 22.5795 50.2338 22.6518C50.3586 22.7247 50.5196 22.7614 50.7173 22.7614C50.9043 22.7614 51.0551 22.7222 51.1692 22.6442C51.2838 22.5662 51.3735 22.4649 51.4382 22.34C51.5035 22.2152 51.5478 22.0725 51.5712 21.9116C51.5941 21.75 51.6058 21.5865 51.6058 21.4204ZM56.7828 21.4123C56.7828 21.667 56.7517 21.9126 56.689 22.149C56.6269 22.3859 56.524 22.5963 56.3813 22.7808C56.2381 22.9652 56.0496 23.1119 55.8158 23.2209C55.5819 23.3305 55.291 23.385 54.943 23.385C54.6103 23.385 54.3321 23.3331 54.1085 23.2291C53.8853 23.1252 53.7044 22.9835 53.5669 22.8042C53.4288 22.6248 53.3305 22.4154 53.2703 22.1765C53.2107 21.9375 53.1807 21.6853 53.1807 21.4204C53.1807 21.1606 53.2148 20.9094 53.2821 20.6679C53.3498 20.4264 53.4563 20.2129 53.602 20.0285C53.7472 19.844 53.9358 19.6958 54.167 19.5842C54.3984 19.4726 54.6776 19.4165 55.0052 19.4165C55.3379 19.4165 55.6186 19.4726 55.8474 19.5842C56.0756 19.6958 56.2591 19.844 56.3966 20.0285C56.5347 20.2129 56.6335 20.4264 56.6931 20.6679C56.7527 20.9094 56.7828 21.1575 56.7828 21.4123H56.7828ZM55.8937 21.4204C55.8937 21.2589 55.8835 21.0969 55.8627 20.9328C55.8418 20.7692 55.7989 20.621 55.7343 20.4885C55.669 20.3561 55.5783 20.2481 55.4612 20.165C55.3445 20.082 55.1922 20.0402 55.0052 20.0402C54.8182 20.0402 54.6633 20.0804 54.541 20.1609C54.4192 20.2414 54.3229 20.3484 54.2527 20.4809C54.1828 20.6134 54.1334 20.7616 54.1049 20.9252C54.0758 21.0887 54.0616 21.2538 54.0616 21.4204C54.0616 21.6023 54.0733 21.7734 54.0968 21.935C54.1201 22.096 54.1655 22.2376 54.2333 22.3599C54.301 22.4817 54.3968 22.5795 54.5217 22.6518C54.6465 22.7247 54.8075 22.7614 55.0052 22.7614C55.1922 22.7614 55.3429 22.7222 55.4571 22.6442C55.5717 22.5662 55.6614 22.4649 55.7261 22.34C55.7913 22.2152 55.8356 22.0725 55.8591 21.9116C55.882 21.75 55.8937 21.5865 55.8937 21.4204H55.8937ZM58.0922 21.7791C57.9572 21.7062 57.8415 21.5905 57.7457 21.4322C57.6494 21.2732 57.601 21.0642 57.601 20.8044C57.601 20.5548 57.6479 20.3418 57.7417 20.165C57.8349 19.9882 57.9587 19.8431 58.1121 19.7284C58.2654 19.6143 58.4381 19.5307 58.6302 19.4787C58.8228 19.4268 59.0199 19.4008 59.2227 19.4008C59.3634 19.4008 59.4994 19.4089 59.6324 19.4242C59.7648 19.44 59.883 19.4634 59.987 19.4945H61.2811V19.9699H60.712L60.6962 20.0091C60.7797 20.1028 60.8393 20.2185 60.8755 20.3561C60.9122 20.4936 60.9301 20.6302 60.9301 20.7652C60.9301 20.9787 60.8873 21.1667 60.8017 21.3307C60.7161 21.4943 60.5973 21.6318 60.4471 21.744C60.2963 21.8555 60.1194 21.9401 59.9167 21.9971C59.7139 22.0542 59.4933 22.0827 59.2538 22.0827L58.8253 22.0909C58.6587 22.0909 58.5252 22.1087 58.4239 22.1454C58.3225 22.1816 58.2715 22.2519 58.2715 22.3558C58.2715 22.4287 58.3057 22.4842 58.3729 22.5235C58.4407 22.5622 58.5263 22.582 58.6292 22.582H59.6788C60.1505 22.582 60.5158 22.6768 60.7757 22.8664C61.034 23.0559 61.1639 23.3432 61.1639 23.7279C61.1639 23.9098 61.1211 24.0789 61.0355 24.2348C60.9499 24.3907 60.8235 24.5257 60.6549 24.6398C60.4858 24.7545 60.2754 24.8442 60.0247 24.9089C59.7725 24.9741 59.479 25.0067 59.1412 25.0067C58.7943 25.0067 58.5095 24.9751 58.2899 24.9129C58.0693 24.8503 57.896 24.7673 57.7717 24.6633C57.6479 24.5594 57.5623 24.4412 57.5154 24.3087C57.4686 24.1763 57.4451 24.0397 57.4451 23.8996C57.4451 23.6968 57.4986 23.5201 57.6051 23.3692C57.7116 23.2184 57.8247 23.1069 57.9444 23.034C57.6428 22.9611 57.492 22.7767 57.492 22.4807C57.492 22.3767 57.5088 22.2855 57.5429 22.2076C57.5766 22.1296 57.6219 22.0649 57.679 22.013C57.7366 21.961 57.7987 21.9177 57.8665 21.8841C57.9337 21.8504 58.0041 21.8229 58.0769 21.802L58.0922 21.7791L58.0922 21.7791ZM58.6771 23.143C58.6302 23.1588 58.5823 23.1889 58.5329 23.2327C58.4835 23.277 58.4391 23.3264 58.4004 23.3809C58.3612 23.4354 58.3301 23.495 58.3066 23.5602C58.2832 23.6255 58.2715 23.6886 58.2715 23.7513C58.2715 23.8395 58.2848 23.924 58.3107 24.0045C58.3367 24.0851 58.3862 24.1553 58.459 24.2149C58.5314 24.2751 58.6327 24.323 58.7627 24.3591C58.8926 24.3958 59.0617 24.4142 59.2696 24.4142C59.6125 24.4142 59.8723 24.353 60.0492 24.2307C60.2259 24.1085 60.3146 23.949 60.3146 23.7513C60.3146 23.6784 60.3039 23.6056 60.283 23.5327C60.2626 23.4604 60.2234 23.3952 60.1663 23.3381C60.1093 23.281 60.0298 23.2342 59.9284 23.1975C59.827 23.1613 59.693 23.143 59.5269 23.143H58.6771L58.6771 23.143ZM60.0802 20.7652C60.0802 20.6719 60.0675 20.5782 60.0415 20.4845C60.0155 20.3912 59.9702 20.3082 59.9065 20.2353C59.8412 20.1625 59.7556 20.1028 59.6502 20.056C59.5437 20.0091 59.4128 19.9857 59.2579 19.9857C58.9889 19.9857 58.7876 20.056 58.6526 20.1961C58.5186 20.3367 58.4508 20.5262 58.4508 20.7652C58.4508 20.999 58.5171 21.185 58.6485 21.3226C58.781 21.4607 58.9629 21.5294 59.1957 21.5294C59.4489 21.5294 59.6609 21.4683 59.8285 21.346C59.9961 21.2242 60.0802 21.0306 60.0802 20.7652V20.7652ZM62.965 23.3147H62.1151V17.7561H62.9726L62.965 23.3147ZM65.6158 19.4089C65.8756 19.4089 66.0978 19.441 66.2822 19.5062C66.4667 19.5709 66.6201 19.6555 66.7423 19.7594C66.8641 19.8634 66.9594 19.9816 67.0266 20.1146C67.0944 20.247 67.1448 20.382 67.1789 20.5196C67.2126 20.6577 67.2335 20.7902 67.2411 20.9175C67.2487 21.0449 67.2528 21.155 67.2528 21.2487V21.5529H64.7191C64.7191 21.7189 64.7359 21.8738 64.7696 22.0165C64.8037 22.1597 64.8608 22.2829 64.9413 22.3869C65.0218 22.4909 65.1283 22.5739 65.2607 22.6366C65.3932 22.6987 65.5557 22.7298 65.7483 22.7298C65.9664 22.7298 66.1732 22.7079 66.3678 22.6635C66.563 22.6197 66.7643 22.556 66.9721 22.4725L67.1591 23.0029C66.9201 23.1328 66.6746 23.2265 66.4224 23.2836C66.1707 23.3407 65.9118 23.3692 65.6469 23.3692C65.2882 23.3692 64.9932 23.3172 64.762 23.2133C64.5306 23.1094 64.3472 22.9677 64.2122 22.7884C64.0772 22.609 63.9834 22.4012 63.9314 22.1648C63.8795 21.9284 63.8535 21.6777 63.8535 21.4123C63.8535 21.2253 63.8769 21.0159 63.9238 20.785C63.9707 20.5538 64.0578 20.3352 64.1852 20.1298C64.3125 19.9246 64.4904 19.7534 64.7191 19.6153C64.9479 19.4777 65.2465 19.4089 65.6158 19.4089H65.6158ZM65.6469 19.9857C65.4803 19.9857 65.3412 20.0157 65.2296 20.0753C65.1181 20.135 65.0269 20.2155 64.957 20.3169C64.8868 20.4182 64.8348 20.5354 64.8007 20.6679C64.767 20.8004 64.7451 20.9394 64.7344 21.0851H66.4652C66.4652 20.9236 66.4525 20.7759 66.4265 20.6404C66.4004 20.5054 66.3561 20.3897 66.294 20.2934C66.2313 20.1977 66.1472 20.1222 66.0402 20.0677C65.9338 20.0132 65.8028 19.9857 65.6469 19.9857ZM73.9964 19.5567C73.9964 19.7335 73.9679 19.9179 73.9109 20.1105C73.8538 20.3026 73.7611 20.4784 73.6342 20.6368C73.5068 20.7952 73.3367 20.9262 73.1232 21.0306C72.9102 21.1346 72.6478 21.1865 72.336 21.1865H71.2676L71.2758 23.3147H70.3791V17.9666H72.2581C72.8037 17.9666 73.2297 18.1041 73.5364 18.3797C73.8431 18.6554 73.9965 19.0477 73.9965 19.5567L73.9964 19.5567ZM71.2676 18.606V20.5471H72.1878C72.3019 20.5471 72.414 20.5314 72.523 20.5002C72.632 20.4692 72.7299 20.4157 72.8155 20.3418C72.901 20.2664 72.9698 20.1666 73.0218 20.0427C73.0738 19.9179 73.0997 19.762 73.0997 19.5766C73.0997 19.2398 73.0091 18.9942 72.8272 18.8383C72.6452 18.6839 72.4216 18.606 72.1567 18.606H71.2676ZM75.6493 23.3147H74.7994V17.7561H75.6569L75.6493 23.3147ZM79.742 22.7222H80.2489L80.2958 23.2056C80.1868 23.2627 80.0604 23.3055 79.9178 23.334C79.7746 23.3625 79.6381 23.3768 79.5081 23.3768C79.3471 23.3768 79.2188 23.3483 79.1224 23.2912C79.0262 23.2342 78.9732 23.1069 78.9625 22.9091C78.9625 22.9091 78.9574 22.904 78.9472 22.8938C78.8065 23.0131 78.67 23.1069 78.5375 23.1746C78.4051 23.2418 78.2802 23.2912 78.1636 23.3223C78.0464 23.3539 77.9424 23.3718 77.8518 23.3768C77.7606 23.3824 77.6867 23.385 77.6297 23.385C77.4009 23.385 77.2124 23.3483 77.0641 23.2755C76.9158 23.2031 76.7991 23.1109 76.7136 22.9988C76.6275 22.8872 76.5678 22.7675 76.5342 22.6401C76.5001 22.5127 76.4833 22.3945 76.4833 22.2855C76.4833 22.1036 76.5225 21.9426 76.6005 21.802C76.6784 21.6619 76.7859 21.5437 76.924 21.4474C77.0615 21.3511 77.2215 21.2773 77.4034 21.2253C77.5853 21.1733 77.783 21.1422 77.996 21.1315L78.9237 21.0694V20.8589C78.9237 20.5782 78.8703 20.3795 78.7637 20.2623C78.6573 20.1456 78.453 20.0871 78.1518 20.0871C77.9649 20.0871 77.7657 20.1054 77.5552 20.1416C77.3448 20.1778 77.1461 20.2272 76.9592 20.2898C76.9332 20.2012 76.9071 20.1105 76.8812 20.0167C76.8552 19.9235 76.8292 19.8323 76.8032 19.7442C77.0213 19.6454 77.271 19.5684 77.5517 19.5139C77.8319 19.4594 78.0999 19.4324 78.3546 19.4324C78.5676 19.4324 78.7597 19.4543 78.9314 19.4986C79.1031 19.5424 79.2483 19.6153 79.368 19.7167C79.4878 19.818 79.58 19.9521 79.6447 20.1182C79.7099 20.2848 79.742 20.487 79.742 20.7265V22.7222L79.742 22.7222ZM78.0428 21.6074C77.814 21.6227 77.6464 21.6813 77.54 21.7827C77.433 21.884 77.38 22.0206 77.38 22.1923C77.38 22.3895 77.4279 22.5387 77.5242 22.6401C77.6205 22.7415 77.7774 22.7925 77.9959 22.7925C78.1412 22.7925 78.2945 22.7548 78.456 22.6794C78.617 22.604 78.7729 22.4985 78.9237 22.3635V21.5447L78.0428 21.6074H78.0428ZM82.6425 22.0517C82.7622 21.6359 82.8896 21.2125 83.0246 20.781C83.1596 20.3494 83.2896 19.9235 83.4144 19.5021H84.2642C84.0197 20.2404 83.768 20.9954 83.5081 21.7674C83.2483 22.5387 82.9936 23.2887 82.7439 24.0162C82.64 24.3439 82.484 24.5879 82.2762 24.7494C82.0683 24.9104 81.811 24.9909 81.5043 24.9909C81.4315 24.9909 81.3341 24.9858 81.2119 24.9751C81.0896 24.965 80.9092 24.9247 80.6702 24.8569L80.7946 24.2735C80.9301 24.2995 81.0417 24.3189 81.1299 24.3321C81.2184 24.3449 81.304 24.3515 81.3871 24.3515C81.5486 24.3515 81.677 24.3163 81.7733 24.2476C81.8696 24.1773 81.9486 24.0448 82.0113 23.8486C82.0424 23.7447 82.0749 23.6458 82.1086 23.55C82.1422 23.4548 82.1748 23.36 82.2059 23.2678H81.8085C81.6108 22.634 81.4131 22.0048 81.2159 21.3812C81.0182 20.7575 80.8206 20.1314 80.6234 19.5021H81.4732C81.5303 19.6896 81.5899 19.8909 81.6526 20.1064C81.7147 20.3224 81.7774 20.5421 81.8395 20.7652C81.9017 20.9889 81.9644 21.211 82.0265 21.4322C82.0892 21.6527 82.1488 21.8647 82.2059 22.0675C82.2476 22.2182 82.2838 22.3583 82.3149 22.4883C82.3465 22.6182 82.3694 22.717 82.3852 22.7843H82.4321L82.6425 22.0517H82.6425ZM34.2172 16.7407C34.2172 16.5058 34.0957 16.2952 33.8923 16.1777L30.4455 14.1887L27.6106 16.929L30.2015 19.4335L33.8923 17.3032C34.0957 17.1859 34.2172 16.9755 34.2172 16.7407ZM27.1435 16.4773L29.8605 13.8507L26.0673 11.661L17.7544 7.40109L27.1435 16.4773L27.1435 16.4773ZM27.1435 17.3807L17.8925 26.3231L26.0816 21.8121L29.6165 19.7715L27.1435 17.3807H27.1435ZM17.1998 7.76847L17.191 26.098L26.6763 16.9288L17.1998 7.76847Z" fill="#75869A"/>
</svg>
