<svg width="14" height="14" viewBox="0 0 14 14" fill="none" xmlns="http://www.w3.org/2000/svg">
<path d="M9.41057 0.571533H4.58915C2.37049 0.571533 0.571289 2.37073 0.571289 4.58939V9.41082C0.571289 11.6295 2.37049 13.4287 4.58915 13.4287H9.41057C11.6292 13.4287 13.4284 11.6295 13.4284 9.41082V4.58939C13.4284 2.37073 11.6292 0.571533 9.41057 0.571533ZM12.2231 9.41082C12.2231 10.9617 10.9615 12.2233 9.41057 12.2233H4.58915C3.03825 12.2233 1.77665 10.9617 1.77665 9.41082V4.58939C1.77665 3.0385 3.03825 1.77689 4.58915 1.77689H9.41057C10.9615 1.77689 12.2231 3.0385 12.2231 4.58939V9.41082Z" fill="#249AF3"/>
<path d="M6.99944 3.78589C5.22435 3.78589 3.78516 5.22509 3.78516 7.00017C3.78516 8.77526 5.22435 10.2145 6.99944 10.2145C8.77453 10.2145 10.2137 8.77526 10.2137 7.00017C10.2137 5.22509 8.77453 3.78589 6.99944 3.78589ZM6.99944 9.0091C5.89212 9.0091 4.99051 8.1075 4.99051 7.00017C4.99051 5.89205 5.89212 4.99125 6.99944 4.99125C8.10676 4.99125 9.00837 5.89205 9.00837 7.00017C9.00837 8.1075 8.10676 9.0091 6.99944 9.0091Z" fill="#249AF3"/>
<path d="M10.4556 3.97428C10.6922 3.97428 10.884 3.78252 10.884 3.54598C10.884 3.30943 10.6922 3.11768 10.4556 3.11768C10.2191 3.11768 10.0273 3.30943 10.0273 3.54598C10.0273 3.78252 10.2191 3.97428 10.4556 3.97428Z" fill="#249AF3"/>
</svg>
