<svg id="instagram" width="14" height="14" fill="none" xmlns="http://www.w3.org/2000/svg">
    <path d="M9.412.572H4.59A4.018 4.018 0 0 0 .572 4.589v4.822c0 2.219 1.8 4.018 4.018 4.018h4.822c2.218 0 4.017-1.8 4.017-4.018V4.589c0-2.218-1.799-4.017-4.017-4.017zm2.812 8.839a2.816 2.816 0 0 1-2.812 2.812H4.59a2.816 2.816 0 0 1-2.812-2.812V4.589A2.816 2.816 0 0 1 4.59 1.777h4.822a2.816 2.816 0 0 1 2.812 2.812v4.822z" fill="#fff"/>
    <path d="M7.001 3.786a3.214 3.214 0 1 0 0 6.429 3.214 3.214 0 0 0 0-6.43zm0 5.223A2.012 2.012 0 0 1 4.992 7c0-1.108.902-2.009 2.01-2.009 1.107 0 2.008.901 2.008 2.01a2.012 2.012 0 0 1-2.009 2.008zM10.456 3.974a.428.428 0 1 0 0-.856.428.428 0 0 0 0 .856z" fill="#fff"/>
</svg>
