<svg id="list" width="25" height="19" viewBox="0 0 25 19" fill="none" xmlns="http://www.w3.org/2000/svg">
<path d="M23.7529 18.6655H7.03553C6.34652 18.6655 5.78809 18.1017 5.78809 17.406C5.78809 16.7103 6.34652 16.1465 7.03553 16.1465H23.7525C24.4415 16.1465 25 16.7103 25 17.406C25 18.1017 24.4419 18.6655 23.7529 18.6655Z" fill="#249AF3"/>
<path d="M23.7529 10.7595H7.03553C6.34652 10.7595 5.78809 10.1956 5.78809 9.49998C5.78809 8.80432 6.34652 8.24048 7.03553 8.24048H23.7525C24.4415 8.24048 25 8.80432 25 9.49998C25.0004 10.1956 24.4419 10.7595 23.7529 10.7595Z" fill="#249AF3"/>
<path d="M23.7529 2.85372H7.03553C6.34652 2.85372 5.78809 2.28988 5.78809 1.59422C5.78809 0.898554 6.34652 0.334717 7.03553 0.334717H23.7525C24.4415 0.334717 25 0.898554 25 1.59422C25 2.28988 24.4419 2.85372 23.7529 2.85372Z" fill="#249AF3"/>
<path d="M1.67532 3.38302C2.60057 3.38302 3.35063 2.62571 3.35063 1.69151C3.35063 0.757315 2.60057 0 1.67532 0C0.750065 0 0 0.757315 0 1.69151C0 2.62571 0.750065 3.38302 1.67532 3.38302Z" fill="#249AF3"/>
<path d="M1.67532 11.1916C2.60057 11.1916 3.35063 10.4343 3.35063 9.5001C3.35063 8.56591 2.60057 7.80859 1.67532 7.80859C0.750065 7.80859 0 8.56591 0 9.5001C0 10.4343 0.750065 11.1916 1.67532 11.1916Z" fill="#249AF3"/>
<path d="M1.67532 19C2.60057 19 3.35063 18.2426 3.35063 17.3085C3.35063 16.3743 2.60057 15.6169 1.67532 15.6169C0.750065 15.6169 0 16.3743 0 17.3085C0 18.2426 0.750065 19 1.67532 19Z" fill="#249AF3"/>
</svg>
