<svg width="19" height="20" viewBox="0 0 19 20" fill="none" xmlns="http://www.w3.org/2000/svg">
<path d="M15.0227 11.786C14.6332 11.3805 14.1634 11.1636 13.6655 11.1636C13.1716 11.1636 12.6977 11.3764 12.2921 11.782L11.0232 13.0469C10.9188 12.9907 10.8144 12.9385 10.714 12.8863C10.5695 12.814 10.4329 12.7458 10.3165 12.6735C9.12787 11.9186 8.04768 10.9347 7.01166 9.6618C6.50971 9.02734 6.1724 8.49326 5.92745 7.95116C6.25673 7.64999 6.56192 7.33678 6.85907 7.03561C6.9715 6.92317 7.08394 6.80672 7.19638 6.69428C8.03965 5.85101 8.03965 4.75878 7.19638 3.91551L6.10012 2.81925C5.97564 2.69477 5.84714 2.56627 5.72668 2.43777C5.48574 2.18881 5.23276 1.93181 4.97175 1.69088C4.58224 1.30538 4.11643 1.10059 3.62653 1.10059C3.13663 1.10059 2.66279 1.30538 2.26123 1.69088C2.25722 1.69489 2.25722 1.69489 2.2532 1.69891L0.887904 3.07625C0.37391 3.59024 0.0807728 4.21667 0.0165235 4.94349C-0.0798504 6.11604 0.265489 7.20828 0.530517 7.92305C1.18104 9.67786 2.15281 11.3042 3.60243 13.0469C5.36126 15.1471 7.47747 16.8055 9.89485 17.974C10.8184 18.4117 12.0512 18.9297 13.4286 19.0181C13.5129 19.0221 13.6012 19.0261 13.6815 19.0261C14.6091 19.0261 15.3882 18.6928 15.9985 18.0303C16.0025 18.0222 16.0106 18.0182 16.0146 18.0102C16.2234 17.7572 16.4643 17.5283 16.7173 17.2834C16.89 17.1187 17.0667 16.9461 17.2393 16.7654C17.6369 16.3517 17.8457 15.8699 17.8457 15.376C17.8457 14.878 17.6329 14.4002 17.2273 13.9986L15.0227 11.786ZM16.4603 16.0144C16.4563 16.0144 16.4563 16.0185 16.4603 16.0144C16.3037 16.1831 16.1431 16.3357 15.9704 16.5043C15.7094 16.7533 15.4444 17.0143 15.1954 17.3075C14.7898 17.7411 14.312 17.9459 13.6856 17.9459C13.6253 17.9459 13.5611 17.9459 13.5008 17.9419C12.3082 17.8656 11.1999 17.3998 10.3687 17.0023C8.09587 15.902 6.10012 14.3399 4.44169 12.3603C3.07238 10.7099 2.15683 9.18394 1.55047 7.54559C1.17703 6.54571 1.0405 5.76669 1.10073 5.03184C1.14089 4.56201 1.32159 4.1725 1.65488 3.83921L3.02419 2.4699C3.22095 2.28518 3.42976 2.18479 3.63456 2.18479C3.88754 2.18479 4.09234 2.33738 4.22083 2.46588C4.22485 2.4699 4.22886 2.47391 4.23288 2.47793C4.47783 2.70682 4.71073 2.94374 4.95568 3.19672C5.08017 3.32522 5.20867 3.45371 5.33716 3.58623L6.43342 4.68248C6.85907 5.10813 6.85907 5.50166 6.43342 5.92731C6.31697 6.04376 6.20453 6.16021 6.08808 6.27265C5.75077 6.61799 5.42952 6.93924 5.08017 7.25245C5.07214 7.26048 5.06411 7.2645 5.06009 7.27253C4.71475 7.61787 4.779 7.95518 4.85128 8.18406C4.8553 8.19611 4.85931 8.20816 4.86333 8.2202C5.14843 8.91088 5.54999 9.56141 6.16036 10.3364L6.16437 10.3404C7.27267 11.7057 8.44121 12.7699 9.73021 13.585C9.89485 13.6894 10.0635 13.7737 10.2241 13.8541C10.3687 13.9263 10.5052 13.9946 10.6217 14.0669C10.6377 14.0749 10.6538 14.087 10.6699 14.095C10.8064 14.1633 10.9349 14.1954 11.0674 14.1954C11.4007 14.1954 11.6095 13.9866 11.6778 13.9183L13.0511 12.545C13.1876 12.4085 13.4045 12.2438 13.6574 12.2438C13.9064 12.2438 14.1112 12.4004 14.2357 12.5369C14.2397 12.541 14.2397 12.541 14.2437 12.545L16.4563 14.7576C16.8699 15.1672 16.8699 15.5888 16.4603 16.0144Z" fill="white"/>
<path d="M10.2685 4.5256C11.3206 4.70228 12.2763 5.20021 13.0392 5.96317C13.8022 6.72613 14.2961 7.68184 14.4768 8.73392C14.521 8.99895 14.7499 9.18367 15.0109 9.18367C15.043 9.18367 15.0711 9.17965 15.1032 9.17564C15.4004 9.12745 15.5972 8.84636 15.549 8.54921C15.3321 7.27627 14.7298 6.11577 13.8102 5.1962C12.8907 4.27663 11.7302 3.67429 10.4572 3.45745C10.1601 3.40927 9.88299 3.60603 9.83079 3.89917C9.77859 4.1923 9.97133 4.47741 10.2685 4.5256Z" fill="white"/>
<path d="M18.9917 8.39279C18.6343 6.29666 17.6465 4.38926 16.1286 2.87137C14.6107 1.35348 12.7033 0.365651 10.6072 0.00826465C10.3141 -0.0439379 10.037 0.156841 9.98479 0.449978C9.93661 0.747131 10.1334 1.02421 10.4305 1.07641C12.3018 1.39364 14.0084 2.28108 15.3657 3.63433C16.7229 4.9916 17.6064 6.69822 17.9236 8.56948C17.9678 8.8345 18.1966 9.01922 18.4577 9.01922C18.4898 9.01922 18.5179 9.0152 18.55 9.01119C18.8432 8.96702 19.0439 8.68593 18.9917 8.39279Z" fill="white"/>
</svg>
