<svg width="24" height="19" viewBox="0 0 24 19" fill="none" xmlns="http://www.w3.org/2000/svg">
<path d="M11.75 7.05C9.80303 7.05 8.225 8.62873 8.225 10.575C8.225 12.522 9.80303 14.1 11.75 14.1C13.6965 14.1 15.275 12.522 15.275 10.575C15.275 8.62873 13.6965 7.05 11.75 7.05ZM21.15 3.525H18.33C17.9422 3.525 17.5244 3.2242 17.402 2.85619L16.673 0.668575C16.5501 0.3008 16.1327 0 15.745 0H7.755C7.36725 0 6.94942 0.3008 6.82699 0.66881L6.09801 2.85643C5.97511 3.2242 5.55775 3.525 5.17 3.525H2.35C1.0575 3.525 0 4.5825 0 5.875V16.45C0 17.7425 1.0575 18.8 2.35 18.8H21.15C22.4425 18.8 23.5 17.7425 23.5 16.45V5.875C23.5 4.5825 22.4425 3.525 21.15 3.525ZM11.75 16.45C8.50535 16.45 5.875 13.8196 5.875 10.575C5.875 7.33059 8.50535 4.7 11.75 4.7C14.9942 4.7 17.625 7.33059 17.625 10.575C17.625 13.8196 14.9942 16.45 11.75 16.45ZM20.3275 7.51835C19.8735 7.51835 19.505 7.15034 19.505 6.69585C19.505 6.24183 19.8735 5.87335 20.3275 5.87335C20.782 5.87335 21.15 6.24183 21.15 6.69585C21.15 7.15034 20.7818 7.51835 20.3275 7.51835Z" fill="#75869A"/>
</svg>
