<svg width="12" height="18" viewBox="0 0 12 18" fill="none" xmlns="http://www.w3.org/2000/svg">
<path d="M6 0C2.6916 0 0 2.6916 0 6C0 7.1178 0.309633 8.20867 0.895634 9.15507L5.65847 16.8303C5.7497 16.9773 5.91043 17.0667 6.0833 17.0667C6.08463 17.0667 6.08593 17.0667 6.08727 17.0667C6.26163 17.0653 6.4227 16.9732 6.51227 16.8236L11.1537 9.074C11.7074 8.1476 12 7.08463 12 6C12 2.6916 9.3084 0 6 0ZM10.2955 8.5606L6.07573 15.6062L1.74557 8.6282C1.2578 7.84047 0.993333 6.93167 0.993333 6C0.993333 3.243 3.243 0.993333 6 0.993333C8.757 0.993333 11.0033 3.243 11.0033 6C11.0033 6.90403 10.7563 7.7896 10.2955 8.5606Z" fill="#249AF3"/>
<path d="M6 3C4.3458 3 3 4.3458 3 6C3 7.64363 4.3239 9 6 9C7.69677 9 9 7.62557 9 6C9 4.3458 7.6542 3 6 3ZM6 8.00667C4.89143 8.00667 3.99333 7.10557 3.99333 6C3.99333 4.8972 4.8972 3.99333 6 3.99333C7.1028 3.99333 8.00333 4.8972 8.00333 6C8.00333 7.08943 7.12613 8.00667 6 8.00667Z" fill="#249AF3"/>
</svg>
