<svg width="21" height="26" viewBox="0 0 21 26" fill="none" xmlns="http://www.w3.org/2000/svg">
<path d="M20.4833 19.4063C20.1352 18.9716 19.6179 18.6654 18.9768 18.4958C19.9219 15.988 19.3659 12.0066 17.371 7.28761C16.6789 5.93704 13.8004 5.49074 12.5926 5.36157C12.4235 5.3437 12.2502 5.32903 12.0769 5.31485V4.20003H15.7222C15.9212 4.20013 16.1032 4.08769 16.1921 3.90964C16.8527 2.58851 16.2263 0.71494 14.9057 0.0548915C14.8328 0.0185613 14.7524 -0.000342214 14.6709 -0.000243758H6.26941C6.18833 -0.000145302 6.10834 0.018709 6.03573 0.0548915C4.7335 0.705488 4.29764 2.57221 4.72297 3.84086C4.79435 4.0552 4.99485 4.19988 5.22076 4.20003H8.92373V5.31376C6.72359 5.49177 4.68358 6.06779 3.75938 7.19363C3.72758 7.23277 3.70159 7.27629 3.68219 7.32281C1.584 12.2918 1.05361 16.0132 2.09754 18.3939C1.16866 18.5551 0.670325 19.096 0.431914 19.4657C-0.202929 20.4492 -0.133074 21.8701 0.609381 23.0857C1.53935 24.6085 3.27793 25.4014 5.22081 25.2029H15.6892C15.8718 25.2246 16.0556 25.2355 16.2395 25.2354C18.7074 25.2354 20.7307 23.2805 20.9759 21.3224C21.0677 20.5862 20.896 19.923 20.4833 19.4063ZM5.63408 3.1498C5.52907 2.38003 5.7953 1.43273 6.40543 1.04939H14.5355C15.1756 1.44322 15.5369 2.4073 15.3563 3.1498H5.63408ZM11.0252 4.20003V5.2602C10.6771 5.25075 10.3263 5.24864 9.97505 5.2576V4.20003H11.0252ZM12.4798 6.40544C14.6584 6.63913 15.9391 7.17 16.3251 7.60951L11.8581 12.0765H9.14226L4.74876 7.68197C6.04784 6.45374 9.62218 6.09826 12.4798 6.40544ZM14.7907 19.6605C13.3278 19.3302 11.9305 19.1574 10.5374 19.1574C9.11966 19.1574 7.69456 19.338 6.20276 19.6825L9.25937 13.1267H11.7415L14.7907 19.6605ZM4.72405 24.1816C2.75754 24.2152 1.82393 23.0631 1.50361 22.5391C0.978493 21.679 0.901303 20.6734 1.31245 20.0365C1.58601 19.6122 2.06702 19.4095 2.69714 19.4126C3.21123 20.0627 3.89751 20.5463 4.724 20.8456V24.1816H4.72405ZM4.98191 19.8091C4.13651 19.4772 3.50059 18.9164 3.11307 18.1078C2.1894 16.1885 2.58849 12.9403 4.26249 8.67963L8.29367 12.7129L4.98191 19.8091ZM15.225 24.1543H5.7732V20.8666C9.0598 20.0118 11.9431 20.0065 15.225 20.8493V24.1543ZM16.0704 19.9194L12.7045 12.7129L16.784 8.63345C18.5604 13.1902 18.8734 16.9862 17.6042 18.8991H17.6047C17.2046 19.5024 16.6769 19.8495 16.0704 19.9194ZM19.9346 21.1932C19.7682 22.5212 18.322 24.1779 16.2773 24.1863V20.9527C17.1547 20.8262 17.9261 20.3158 18.4827 19.4798C18.4859 19.4746 18.4885 19.4688 18.4922 19.4635C19.023 19.5623 19.4226 19.7592 19.6663 20.0627C19.9577 20.4297 19.9725 20.8803 19.9336 21.1927L19.9346 21.1932Z" fill="#75869A"/>
</svg>
