<svg width="36" height="34" viewBox="0 0 36 34" fill="none" xmlns="http://www.w3.org/2000/svg">
<path d="M32.5637 14.1249C31.7704 14.1249 31.1274 14.768 31.1274 15.5612V17.0078C31.1253 20.7814 29.6537 24.3283 26.9839 26.995C24.316 29.6598 20.7707 31.1271 17.0002 31.1271C16.9975 31.1271 16.9947 31.1271 16.9919 31.1271C9.20201 31.1226 2.86812 24.7816 2.87257 16.9916C2.87472 13.2181 4.34628 9.67122 7.0162 7.00436C9.68411 4.33958 13.2294 2.87232 16.9998 2.87232C17.0026 2.87232 17.0054 2.87232 17.0082 2.87232C18.9993 2.87343 20.9312 3.28497 22.75 4.09533C23.4747 4.41826 24.3235 4.09249 24.6465 3.36796C24.9692 2.64343 24.6437 1.79438 23.9191 1.47146C21.7304 0.496225 19.4059 0.00107533 17.0098 -0.000244141C17.0061 -0.000244141 17.0034 -0.000244141 16.9998 -0.000244141C12.4629 -0.000244141 8.1963 1.76563 4.98609 4.97209C1.77338 8.18105 0.00264175 12.4491 2.80041e-06 16.9901C-0.0025667 21.5309 1.76317 25.801 4.97227 29.0137C8.18137 32.2264 12.4494 33.9971 16.9902 33.9998C16.9938 33.9998 16.9966 33.9998 17.0002 33.9998C21.5371 33.9998 25.8037 32.234 29.0139 29.0274C32.2266 25.8184 33.9974 21.5503 34 17.0087V15.5613C34 14.768 33.357 14.1249 32.5637 14.1249Z" fill="#249AF3"/>
<path d="M35.1355 1.98594C34.5746 1.4251 33.6652 1.4251 33.1043 1.98594L16.9999 18.0903L13.3464 14.4368C12.7855 13.8759 11.8761 13.8759 11.3152 14.4368C10.7543 14.9978 10.7543 15.9072 11.3152 16.4681L15.9844 21.1372C16.2648 21.4177 16.6324 21.5579 17 21.5579C17.3676 21.5579 17.7352 21.4177 18.0156 21.1372L35.1355 4.01717C35.6965 3.45625 35.6965 2.54686 35.1355 1.98594Z" fill="#249AF3"/>
</svg>
