<svg width="33" height="33" viewBox="0 0 33 33" fill="none" xmlns="http://www.w3.org/2000/svg">
<path d="M32.4983 30.0578L24.3632 21.8892C26.4549 19.4886 27.6009 16.4681 27.6009 13.3237C27.6009 5.97714 21.4099 0 13.8004 0C6.191 0 0 5.97714 0 13.3237C0 20.6703 6.191 26.6475 13.8004 26.6475C16.6571 26.6475 19.3794 25.8156 21.7069 24.2365L29.9038 32.467C30.2464 32.8106 30.7072 33 31.201 33C31.6684 33 32.1118 32.8279 32.4485 32.5151C33.1637 31.8507 33.1865 30.7489 32.4983 30.0578ZM13.8004 3.47576C19.425 3.47576 24.0008 7.89345 24.0008 13.3237C24.0008 18.754 19.425 23.1717 13.8004 23.1717C8.17587 23.1717 3.60012 18.754 3.60012 13.3237C3.60012 7.89345 8.17587 3.47576 13.8004 3.47576Z" fill="#249AF3"/>
</svg>
