<svg width="40" height="34" viewBox="0 0 40 34" fill="none" xmlns="http://www.w3.org/2000/svg">
<path d="M35.0626 0H4.93744C2.21497 0 0 2.21497 0 4.93744V23.7656C0 26.0843 1.60706 28.0341 3.76556 28.5614V28.7866C3.76556 30.1053 4.27917 31.3452 5.21179 32.2778C6.14471 33.2104 7.38464 33.7241 8.703 33.7241H31.297C32.6154 33.7241 33.8553 33.2104 34.7885 32.2778C35.7208 31.3452 36.2344 30.1053 36.2344 28.7866V28.5614C38.3929 28.0338 40 26.0843 40 23.7656V4.93744C40 2.21497 37.785 0 35.0626 0ZM2.34375 8.61969H37.6562V11.297H2.34375V8.61969ZM4.93744 2.34375H35.0626C36.4926 2.34375 37.6562 3.50739 37.6562 4.93744V6.27594H2.34375V4.93744C2.34375 3.50739 3.50739 2.34375 4.93744 2.34375ZM33.1314 30.6201C32.641 31.1102 31.9894 31.3803 31.297 31.3803H8.703C8.01056 31.3803 7.35901 31.1102 6.8689 30.6204C6.37909 30.1306 6.10931 29.4794 6.10931 28.7866V28.7033H33.8907V28.7866C33.8907 29.4794 33.6209 30.1306 33.1314 30.6201ZM35.0626 26.3593H4.93744C3.50739 26.3593 2.34375 25.1959 2.34375 23.7656V13.6407H37.6562V23.7656C37.6562 25.1959 36.4926 26.3593 35.0626 26.3593Z" fill="#249AF3"/>
<path d="M32.5518 17.573H28.7863C26.7556 17.573 25.104 19.2249 25.104 21.2552C25.104 23.2856 26.7556 24.9375 28.7863 24.9375H32.5518C34.5822 24.9375 36.2341 23.2856 36.2341 21.2552C36.2341 19.2249 34.5822 17.573 32.5518 17.573ZM32.5518 22.5938H28.7863C28.048 22.5938 27.4478 21.9935 27.4478 21.2552C27.4478 20.5173 28.048 19.9167 28.7863 19.9167H32.5518C33.2897 19.9167 33.8903 20.5173 33.8903 21.2552C33.8903 21.9935 33.2897 22.5938 32.5518 22.5938Z" fill="#249AF3"/>
<path d="M4.9375 19.9167H12.4689C13.1159 19.9167 13.6408 19.3922 13.6408 18.7449C13.6408 18.0976 13.1159 17.573 12.4689 17.573H4.9375C4.29022 17.573 3.76562 18.0976 3.76562 18.7449C3.76562 19.3922 4.29022 19.9167 4.9375 19.9167Z" fill="#249AF3"/>
<path d="M16.2345 21.3384H4.9375C4.29022 21.3384 3.76562 21.863 3.76562 22.5103C3.76562 23.1575 4.29022 23.6821 4.9375 23.6821H16.2345C16.8818 23.6821 17.4064 23.1575 17.4064 22.5103C17.4064 21.863 16.8818 21.3384 16.2345 21.3384Z" fill="#249AF3"/>
</svg>
