<svg id="tehnica" width="24" height="20" viewBox="0 0 24 20" fill="#75869A" xmlns="http://www.w3.org/2000/svg">
<path d="M19.7897 15.5791C20.255 15.5791 20.6318 15.9559 20.6318 16.4212C20.6318 16.8861 20.255 17.2633 19.7897 17.2633C19.3245 17.2633 18.9476 16.8861 18.9476 16.4212C18.9477 15.956 19.3245 15.5791 19.7897 15.5791Z" />
<path d="M5.05243 15.5791C5.51771 15.5791 5.89453 15.9559 5.89453 16.4212C5.89453 16.8861 5.51771 17.2633 5.05243 17.2633C4.58715 17.2633 4.21032 16.8861 4.21032 16.4212C4.21037 15.956 4.58719 15.5791 5.05243 15.5791Z" />
<path d="M0.366968 8.69698L4.0255 4.67218C4.29203 4.37869 4.67265 4.21069 5.0693 4.21069H7.15771V9.26328H0.0588131C0.117688 9.05529 0.21875 8.85992 0.366968 8.69698Z" />
<path d="M2.94747 11.3683H0.000120163V10.1052H7.2763C7.67544 10.1052 8.0001 9.78061 8.0001 9.38142V4.21048H8.94748C9.5862 4.21048 10.1054 4.72962 10.1054 5.36838V8.69846L19.0775 0.116624C19.1558 0.0420935 19.2602 0 19.3684 0H22.3158C22.3676 0 22.416 0.0121875 22.4627 0.0294843C22.4766 0.0349687 22.4889 0.0416718 22.5023 0.0479999C22.5343 0.064406 22.5638 0.0842339 22.5907 0.107812C22.6017 0.117515 22.6122 0.125484 22.6219 0.136031C22.6547 0.170999 22.6829 0.209718 22.7027 0.255186C22.7036 0.257296 22.704 0.259827 22.7049 0.261936C22.7238 0.308249 22.7314 0.355826 22.7335 0.404248C22.7335 0.410154 22.7369 0.415217 22.7369 0.421076V3.7895C22.7369 4.02232 22.5482 4.21053 22.3158 4.21053C21.8514 4.21053 21.4737 4.5882 21.4737 5.05263C21.4737 5.51707 21.8514 5.89474 22.3158 5.89474C22.7803 5.89474 23.1579 5.51707 23.1579 5.05263C23.1579 4.8198 23.3466 4.6316 23.579 4.6316C23.8114 4.6316 24 4.81976 24 5.05258C24 5.98141 23.2446 6.73679 22.3158 6.73679C21.387 6.73679 20.6316 5.98141 20.6316 5.05258C20.6316 4.26987 21.1705 3.61639 21.8947 3.42819V1.46437L11.9386 11.7894H24V15.8243C24 16.3856 23.5436 16.842 22.9823 16.842H22.7032C22.4977 18.2677 21.2712 19.3683 19.7895 19.3683C18.3078 19.3683 17.0813 18.2677 16.8758 16.842H7.96634C7.76089 18.2677 6.53437 19.3683 5.05266 19.3683C3.57099 19.3683 2.34447 18.2677 2.13897 16.842H1.01772C0.456448 16.842 2.67029e-05 16.3856 2.67029e-05 15.8243V12.2105H2.94737C3.17978 12.2105 3.3684 12.0223 3.3684 11.7894C3.3684 11.5566 3.17992 11.3683 2.94747 11.3683ZM19.7895 18.5262C20.9503 18.5262 21.8947 17.5818 21.8947 16.421C21.8947 15.2602 20.9503 14.3157 19.7895 14.3157C18.6286 14.3157 17.6842 15.2602 17.6842 16.421C17.6842 17.5818 18.6287 18.5262 19.7895 18.5262ZM2.94747 16.4209C2.94747 17.5818 3.8919 18.5262 5.0527 18.5262C6.21356 18.5262 7.15794 17.5817 7.15794 16.4209C7.15794 15.2601 6.21351 14.3157 5.0527 14.3157C3.8919 14.3157 2.94747 15.2601 2.94747 16.4209Z" />
</svg>
