<svg width="31" height="22" viewBox="0 0 31 22" fill="none" xmlns="http://www.w3.org/2000/svg">
<path d="M23.2379 13.5747C21.0992 13.5747 19.3594 15.3146 19.3594 17.4532C19.3594 19.5919 21.0992 21.3318 23.2379 21.3318C25.3769 21.3318 27.1164 19.5919 27.1164 17.4532C27.1164 15.3146 25.3766 13.5747 23.2379 13.5747ZM23.2379 19.3925C22.1684 19.3925 21.2986 18.5227 21.2986 17.4532C21.2986 16.3838 22.1684 15.514 23.2379 15.514C24.3074 15.514 25.1772 16.3838 25.1772 17.4532C25.1772 18.5228 24.3074 19.3925 23.2379 19.3925Z" fill="#75869A"/>
<path d="M9.98693 13.5747C7.84826 13.5747 6.1084 15.3146 6.1084 17.4532C6.1084 19.5919 7.84826 21.3318 9.98693 21.3318C12.1256 21.3318 13.8655 19.5919 13.8655 17.4532C13.8655 15.3146 12.1256 13.5747 9.98693 13.5747ZM9.98693 19.3925C8.91744 19.3925 8.04766 18.5227 8.04766 17.4532C8.04766 16.3838 8.91744 15.514 9.98693 15.514C11.0561 15.514 11.9262 16.3838 11.9262 17.4532C11.9262 18.5228 11.0564 19.3925 9.98693 19.3925Z" fill="#75869A"/>
<path d="M25.8512 2.47317C25.6863 2.14576 25.3512 1.93921 24.9847 1.93921H19.8779V3.87847H24.3867L27.027 9.12997L28.7601 8.25857L25.8512 2.47317Z" fill="#75869A"/>
<path d="M20.33 16.516H12.9932V18.4553H20.33V16.516Z" fill="#75869A"/>
<path d="M7.07898 16.516H3.71765C3.18207 16.516 2.74805 16.9501 2.74805 17.4856C2.74805 18.0212 3.18213 18.4552 3.71765 18.4552H7.07904C7.61463 18.4552 8.04865 18.0211 8.04865 17.4856C8.04865 16.95 7.61457 16.516 7.07898 16.516Z" fill="#75869A"/>
<path d="M30.5667 10.5886L28.6595 8.13218C28.4762 7.89558 28.1934 7.75724 27.8938 7.75724H20.8478V0.969846C20.8478 0.434263 20.4137 0.000244141 19.8782 0.000244141H3.71765C3.18207 0.000244141 2.74805 0.434323 2.74805 0.969846C2.74805 1.50537 3.18213 1.93945 3.71765 1.93945H18.9085V8.72684C18.9085 9.26243 19.3426 9.69645 19.8781 9.69645H27.4189L28.831 11.5155V16.5162H26.1484C25.6128 16.5162 25.1788 16.9503 25.1788 17.4858C25.1788 18.0214 25.6128 18.4554 26.1484 18.4554H29.8006C30.3362 18.4554 30.7702 18.0213 30.7703 17.4858V11.1833C30.7703 10.968 30.6985 10.7586 30.5667 10.5886Z" fill="#75869A"/>
<path d="M7.01294 11.603H2.55261C2.01703 11.603 1.58301 12.0371 1.58301 12.5726C1.58301 13.1082 2.01709 13.5422 2.55261 13.5422H7.01288C7.54846 13.5422 7.98248 13.1082 7.98248 12.5726C7.98254 12.0371 7.54846 11.603 7.01294 11.603Z" fill="#75869A"/>
<path d="M9.24379 7.78943H0.969602C0.434079 7.78943 0 8.22351 0 8.75909C0 9.29467 0.434079 9.72869 0.969602 9.72869H9.24379C9.77937 9.72869 10.2134 9.29461 10.2134 8.75909C10.2134 8.22357 9.77937 7.78943 9.24379 7.78943Z" fill="#75869A"/>
<path d="M10.8268 3.97571H2.55261C2.01703 3.97571 1.58301 4.40979 1.58301 4.94531C1.58301 5.48089 2.01709 5.91491 2.55261 5.91491H10.8268C11.3624 5.91491 11.7964 5.48083 11.7964 4.94531C11.7965 4.40979 11.3624 3.97571 10.8268 3.97571Z" fill="#75869A"/>
</svg>
