<svg id="truck" width="26" height="19" viewBox="0 0 26 19" fill="#75869A" xmlns="http://www.w3.org/2000/svg">
<path d="M25.3109 0.109375H7.4709C7.0905 0.109375 6.76371 0.403425 6.76371 0.783827V2.79703C6.76371 3.17799 6.47361 3.46696 6.09321 3.46696H3.81701C3.55625 3.46696 3.31695 3.62386 3.20069 3.85696L1.32069 7.63051C1.20442 7.86417 0.965116 8.02446 0.70493 8.02446H0.688562C0.30816 8.02446 0 8.31625 0 8.69665V14.1013C0 14.4811 0.30816 14.7876 0.688562 14.7876H2.42238C2.78811 12.9889 4.38309 11.6309 6.28793 11.6309C8.19333 11.6309 9.78718 12.9889 10.154 14.7876H11.3048H17.8834C18.2492 12.9889 19.8441 11.6309 21.749 11.6309C23.6318 11.6309 25.2104 12.9567 25.601 14.7233C25.8358 14.6143 26 14.3784 26 14.1002V0.783827C25.9994 0.402861 25.6913 0.109375 25.3109 0.109375ZM5.85222 7.1265C5.85222 7.4341 5.61517 7.68864 5.30757 7.68864H3.24132C3.11772 7.68864 3.00315 7.62204 2.93824 7.51706C2.87334 7.41152 2.86713 7.28002 2.923 7.16883L3.88248 5.25553C3.97729 5.06702 4.16975 4.95358 4.38084 4.95358H5.30814C5.61573 4.95358 5.85278 5.1895 5.85278 5.49709L5.85222 7.1265Z" />
<path d="M6.28771 12.762C4.73336 12.762 3.47363 14.0217 3.47363 15.576C3.47363 17.1304 4.73336 18.3901 6.28771 18.3901C7.84205 18.3901 9.10178 17.1304 9.10178 15.576C9.10178 14.0217 7.84205 12.762 6.28771 12.762ZM6.28771 16.5976C5.72388 16.5976 5.26615 16.1404 5.26615 15.576C5.26615 15.0116 5.72388 14.5545 6.28771 14.5545C6.8521 14.5545 7.30926 15.0116 7.30926 15.576C7.3087 16.1404 6.8521 16.5976 6.28771 16.5976Z" />
<path d="M21.7481 12.762C20.1937 12.762 18.9346 14.0217 18.9346 15.576C18.9346 17.1304 20.1937 18.3901 21.7481 18.3901C23.3036 18.3901 24.5633 17.1304 24.5633 15.576C24.5633 14.0217 23.3036 12.762 21.7481 12.762ZM21.7481 16.5976C21.1848 16.5976 20.7271 16.1404 20.7271 15.576C20.7271 15.0116 21.1848 14.5545 21.7481 14.5545C22.3125 14.5545 22.7696 15.0116 22.7696 15.576C22.7696 16.1404 22.3125 16.5976 21.7481 16.5976Z" />
</svg>
