<svg id="van" width="32" height="20" viewBox="0 0 32 20" fill="none" xmlns="http://www.w3.org/2000/svg">
<path d="M30.4897 0H10.4741C9.70423 0 8.72782 0.473712 8.25129 1.07865L5.21212 4.93646C4.81614 5.43903 3.99134 6.09066 3.41103 6.35939L1.28311 7.34504C0.563503 7.67816 0 8.5603 0 9.35315V14.9964C0 15.8291 0.677409 16.5065 1.51016 16.5065H2.18269C2.6945 18.2631 4.31792 19.5509 6.2374 19.5509C8.15688 19.5509 9.7803 18.2631 10.2921 16.5065H19.3243C19.8361 18.2631 21.4596 19.5509 23.379 19.5509C25.2985 19.5509 26.9218 18.2631 27.4335 16.5065H30.4895C31.3222 16.5065 31.9996 15.8291 31.9996 14.9964V1.51029C32 0.677538 31.3225 0 30.4897 0ZM6.23753 17.4254C5.07897 17.4254 4.13963 16.486 4.13963 15.3275C4.13963 14.1689 5.07897 13.2296 6.23753 13.2296C7.39609 13.2296 8.33543 14.1688 8.33543 15.3275C8.33543 16.486 7.39609 17.4254 6.23753 17.4254ZM14.9586 6.22945C14.9586 6.65275 14.6122 6.99447 14.189 6.98883L7.39083 6.89749C6.96766 6.89185 6.8331 6.61324 7.09221 6.27845L9.8724 2.68321C10.1315 2.34842 10.6896 2.07443 11.1129 2.07443H14.1889C14.6122 2.07443 14.9586 2.42077 14.9586 2.84407V6.22945ZM17.1809 6.99909C16.7576 6.99909 16.4112 6.65275 16.4112 6.22945V2.85164C16.4112 2.42834 16.7576 2.082 17.1809 2.082H21.7089C22.1322 2.082 22.4786 2.42834 22.4786 2.85164V6.22945C22.4786 6.65275 22.1322 6.99909 21.7089 6.99909H17.1809ZM23.3793 17.4254C22.2209 17.4254 21.2815 16.486 21.2815 15.3275C21.2815 14.1689 22.2207 13.2296 23.3793 13.2296C24.5378 13.2296 25.4772 14.1688 25.4772 15.3275C25.4772 16.486 24.5378 17.4254 23.3793 17.4254ZM29.8505 6.22945C29.8505 6.65275 29.5042 6.99909 29.0809 6.99909H24.5529C24.1296 6.99909 23.7832 6.65275 23.7832 6.22945V2.85164C23.7832 2.42834 24.1296 2.082 24.5529 2.082H29.0809C29.5042 2.082 29.8505 2.42834 29.8505 2.85164V6.22945Z" fill="#75869A"/>
</svg>
