<svg width="29" height="29" viewBox="0 0 29 29" fill="none" xmlns="http://www.w3.org/2000/svg">
<path d="M25.3971 3.60287C23.0742 1.2795 19.9851 0 16.6992 0C13.4141 0 10.325 1.2795 8.00159 3.60287C6.05325 5.55145 4.83879 8.03965 4.4985 10.7305C1.79104 12.5103 0 15.5751 0 19.0498C0 24.5367 4.46333 29 9.95016 29C13.4249 29 16.4897 27.209 18.2695 24.5015C20.9604 24.1617 23.4486 22.9474 25.3971 20.9984C27.7205 18.675 29 15.5859 29 12.3008C29 9.01493 27.7205 5.9258 25.3971 3.60287ZM19.2481 22.5916C19.4572 22.0452 19.6191 21.4752 19.7291 20.8873C20.9962 20.4415 22.1573 19.7138 23.1348 18.7361C24.854 17.0172 25.8009 14.7317 25.8009 12.3008C25.8009 9.86963 24.854 7.58409 23.1348 5.86518C21.4159 4.14605 19.1304 3.19909 16.6992 3.19909C14.2683 3.19909 11.9828 4.14605 10.2639 5.86518C9.28619 6.84267 8.55849 8.00381 8.11266 9.27092C8.00624 9.57337 7.91553 9.88158 7.84185 10.1953C7.76994 10.4989 7.71397 10.8064 7.67414 11.1186C7.62392 11.5078 7.59825 11.9018 7.59825 12.3008C7.59825 12.4395 7.60113 12.5775 7.60799 12.7152C7.62104 13.0114 7.64825 13.3055 7.68963 13.596C7.73034 13.8849 7.78477 14.171 7.85269 14.4524C8.24055 16.0609 9.06427 17.5365 10.2639 18.7361C11.4635 19.9357 12.9391 20.7595 14.5476 21.1473C14.3307 21.6237 14.0371 22.0673 13.6747 22.462C10.257 21.4429 7.5571 18.7423 6.53801 15.3246C6.44796 15.0239 6.37141 14.7175 6.30857 14.406C6.24574 14.0956 6.1964 13.78 6.16188 13.4606C6.12006 13.0796 6.0986 12.6926 6.0986 12.3008C6.0986 12.1149 6.10303 11.9308 6.11276 11.7472C6.13024 11.4109 6.16299 11.0783 6.21188 10.7509C6.261 10.4121 6.32738 10.0792 6.40836 9.75192C7.55179 5.13328 11.7326 1.69922 16.6992 1.69922C22.5452 1.69922 27.3008 6.45482 27.3008 12.3008C27.3008 17.2674 23.8667 21.4482 19.2481 22.5916ZM18.0836 20.4371C18.0327 20.7389 17.9648 21.0358 17.8814 21.3259C17.7245 21.8717 17.5128 22.3941 17.2528 22.8872C17.0946 23.187 16.9192 23.4753 16.7265 23.751C16.5231 24.0433 16.3017 24.3221 16.0634 24.5849C14.5527 26.2523 12.3716 27.3008 9.95016 27.3008C5.40077 27.3008 1.69922 23.5992 1.69922 19.0498C1.69922 16.6284 2.74773 14.4473 4.41509 12.9366C4.44806 13.5864 4.53125 14.2265 4.66267 14.8529C3.71394 16.0424 3.19909 17.5064 3.19909 19.0498C3.19909 20.8535 3.90134 22.5487 5.17642 23.8236C6.45128 25.0987 8.14651 25.8009 9.95016 25.8009C11.4936 25.8009 12.9576 25.2861 14.1471 24.3373C14.3471 24.1787 14.5396 24.0072 14.7232 23.8236C14.7916 23.755 14.8591 23.6849 14.9237 23.6141C15.1496 23.3687 15.3554 23.1094 15.5394 22.8381C15.8474 22.3861 16.0972 21.9013 16.2848 21.392C16.3862 21.1179 16.4694 20.8369 16.534 20.5504C16.5968 20.2723 16.6422 19.9891 16.6694 19.7019C16.6904 19.4866 16.7006 19.2691 16.7006 19.0498C16.7006 17.2471 15.9981 15.5518 14.7232 14.2768C13.4482 13.0019 11.7529 12.2994 9.95016 12.2994C9.7309 12.2994 9.51341 12.3096 9.29813 12.3306C9.29747 12.3204 9.29747 12.3109 9.29747 12.3008C9.29747 11.7961 9.34792 11.2987 9.44593 10.815C9.61253 10.8049 9.78069 10.7998 9.95016 10.7998C14.4993 10.7998 18.2002 14.5007 18.2002 19.0498C18.2002 19.2193 18.1951 19.3875 18.185 19.5541C18.1668 19.8532 18.133 20.1477 18.0836 20.4371ZM10.021 9.101C10.3783 8.3556 10.8637 7.66795 11.4657 7.06658C12.8636 5.66849 14.7226 4.89831 16.6992 4.89831C18.6766 4.89831 20.5355 5.66849 21.9334 7.06658C23.3315 8.46445 24.1017 10.3234 24.1017 12.3008C24.1017 14.2774 23.3315 16.1364 21.9334 17.5343C21.3321 18.1363 20.6444 18.6217 19.899 18.979C19.8609 13.5491 15.4509 9.13905 10.021 9.101ZM14.9814 19.5025C13.6612 19.191 12.449 18.5182 11.4657 17.5343C10.4818 16.551 9.80901 15.3388 9.49748 14.0186C9.64705 14.0055 9.79816 13.9986 9.95016 13.9986C11.2991 13.9986 12.5674 14.5243 13.5218 15.4782C14.4757 16.4326 15.0014 17.7009 15.0014 19.0498C15.0014 19.2018 14.9945 19.353 14.9814 19.5025ZM5.32754 17.0063C5.93819 18.4812 6.83936 19.8355 8.00159 20.9984C9.1645 22.1613 10.5188 23.0625 11.9937 23.6725C11.3587 23.9539 10.6659 24.1017 9.95016 24.1017C8.6003 24.1017 7.33208 23.576 6.37782 22.6217C5.424 21.6679 4.89831 20.3997 4.89831 19.0498C4.89831 18.3341 5.0461 17.6413 5.32754 17.0063Z" fill="#75869A"/>
</svg>
