<svg width="21" height="26" viewBox="0 0 21 26" fill="none" xmlns="http://www.w3.org/2000/svg">
<path d="M15.8963 9.34573L17.0692 7.11329C17.8549 5.61768 17.8003 3.79031 16.9266 2.34431C16.0528 0.898313 14.4606 0 12.7711 0H7.2302C5.54073 0 3.94841 0.898313 3.07468 2.34426C2.201 3.79027 2.14636 5.61763 2.9321 7.11324L4.10503 9.34573C1.61823 11.1668 0 14.1069 0 17.4184C0 19.8615 0.890874 22.214 2.50862 24.0422C3.17326 24.7933 4.1301 25.2241 5.1336 25.2241H14.8677C15.8713 25.2241 16.828 24.7933 17.4927 24.0422C19.1104 22.2139 20.0013 19.8616 20.0013 17.4184C20.0013 14.1069 18.383 11.1668 15.8963 9.34573ZM4.4822 3.19474C5.05999 2.23844 6.113 1.64444 7.2302 1.64444H12.7711C13.8883 1.64444 14.9413 2.23844 15.5191 3.19474C16.0969 4.15104 16.133 5.35948 15.6134 6.34854L14.4928 8.4815C13.9652 8.21542 13.4174 7.99801 12.8527 7.83041L13.8704 5.89332C14.1458 5.36894 14.1267 4.72819 13.8203 4.22124C13.514 3.7142 12.9557 3.39924 12.3633 3.39924H7.63783C7.04546 3.39924 6.48713 3.7142 6.18074 4.22124C5.87446 4.72829 5.85524 5.36894 6.13074 5.89342L7.14847 7.83046C6.58369 7.99806 6.03585 8.21552 5.50836 8.48155L4.38771 6.34859C3.8683 5.35938 3.90441 4.15094 4.4822 3.19474ZM12.4147 5.12852L11.1755 7.48717C10.7901 7.44185 10.3982 7.41786 10.0008 7.41786C9.60334 7.41786 9.21148 7.4419 8.82602 7.48717L7.58669 5.12857C7.57733 5.11069 7.57792 5.08881 7.58841 5.07157C7.59881 5.05433 7.61783 5.04364 7.63802 5.04364H12.3635C12.3836 5.04364 12.4026 5.05433 12.4131 5.07157C12.4235 5.08881 12.4241 5.11069 12.4147 5.12852ZM16.2611 22.9525C15.9084 23.3511 15.4005 23.5797 14.8677 23.5797H5.13365C4.60079 23.5797 4.09291 23.3511 3.74021 22.9525C2.38875 21.4251 1.64449 19.4598 1.64449 17.4184C1.64449 12.8108 5.39308 9.06225 10.0007 9.06225C14.6083 9.06225 18.3568 12.8108 18.3568 17.4184C18.3568 19.4598 17.6126 21.4251 16.2611 22.9525Z" fill="#75869A"/>
</svg>
