<svg width="16" height="16" viewBox="0 0 16 16" fill="none" xmlns="http://www.w3.org/2000/svg">
<path d="M15.2654 7.7566C15.2654 11.646 12.0121 14.7989 7.99819 14.7989C6.72394 14.7989 5.52684 14.4808 4.48533 13.9226L0.461914 15.1712L1.77367 11.3928C1.11195 10.3317 0.730844 9.08711 0.730844 7.7566C0.730844 3.86723 3.98448 0.714355 7.99819 0.714355C12.0124 0.714355 15.2654 3.86723 15.2654 7.7566ZM7.99819 1.83588C4.62892 1.83588 1.88831 4.49193 1.88831 7.7566C1.88831 9.0521 2.32074 10.2519 3.05219 11.2278L2.28883 13.4267L4.63682 12.6979C5.60151 13.3165 6.75717 13.6773 7.99836 13.6773C11.3671 13.6773 14.1082 11.0216 14.1082 7.75692C14.1082 4.49225 11.3673 1.83588 7.99819 1.83588ZM11.668 9.3785C11.6231 9.3067 11.5045 9.26333 11.3265 9.17707C11.1482 9.09081 10.2722 8.67301 10.1093 8.61566C9.946 8.55815 9.82691 8.52924 9.70832 8.70192C9.58973 8.87476 9.24826 9.26333 9.14415 9.3785C9.04019 9.49399 8.9364 9.50845 8.7581 9.42203C8.58013 9.33577 8.00625 9.15329 7.32579 8.56538C6.79632 8.1079 6.43873 7.54312 6.33478 7.37012C6.23099 7.19744 6.32392 7.10412 6.41291 7.01818C6.49317 6.94075 6.59121 6.81659 6.68019 6.71587C6.76951 6.61499 6.79911 6.54319 6.85816 6.42786C6.91787 6.31269 6.8881 6.21197 6.84336 6.12539C6.79895 6.03913 6.44235 5.18971 6.29399 4.84403C6.14562 4.49867 5.99742 4.55618 5.89331 4.55618C5.78952 4.55618 5.6706 4.54172 5.55184 4.54172C5.43308 4.54172 5.23998 4.58493 5.07665 4.75761C4.91348 4.93045 4.45342 5.34809 4.45342 6.19735C4.45342 7.04677 5.09145 7.86744 5.18076 7.98245C5.26975 8.09746 6.41274 9.89718 8.2237 10.5884C10.0348 11.2793 10.0348 11.0487 10.3615 11.0198C10.6878 10.9911 11.4152 10.6024 11.5642 10.1995C11.7122 9.79598 11.7122 9.45046 11.668 9.3785Z" fill="#249AF3"/>
</svg>
