<svg id="whatsapp" width="16" height="16" viewBox="0 0 16 16" fill="none" xmlns="http://www.w3.org/2000/svg">
<path d="M15.2644 7.7566C15.2644 11.646 12.0111 14.7989 7.99722 14.7989C6.72297 14.7989 5.52586 14.4808 4.48435 13.9226L0.460938 15.1712L1.77269 11.3928C1.11097 10.3317 0.729867 9.08711 0.729867 7.7566C0.729867 3.86723 3.9835 0.714355 7.99722 0.714355C12.0114 0.714355 15.2644 3.86723 15.2644 7.7566ZM7.99722 1.83588C4.62795 1.83588 1.88733 4.49193 1.88733 7.7566C1.88733 9.0521 2.31976 10.2519 3.05121 11.2278L2.28785 13.4267L4.63584 12.6979C5.60054 13.3165 6.75619 13.6773 7.99738 13.6773C11.3662 13.6773 14.1073 11.0216 14.1073 7.75692C14.1073 4.49225 11.3663 1.83588 7.99722 1.83588ZM11.667 9.3785C11.6221 9.3067 11.5035 9.26333 11.3255 9.17707C11.1472 9.09081 10.2712 8.67301 10.1084 8.61566C9.94502 8.55815 9.82594 8.52924 9.70735 8.70192C9.58875 8.87476 9.24729 9.26333 9.14317 9.3785C9.03922 9.49399 8.93543 9.50845 8.75713 9.42203C8.57916 9.33577 8.00528 9.15329 7.32481 8.56538C6.79534 8.1079 6.43775 7.54312 6.3338 7.37012C6.23001 7.19744 6.32295 7.10412 6.41193 7.01818C6.4922 6.94075 6.59023 6.81659 6.67921 6.71587C6.76853 6.61499 6.79814 6.54319 6.85719 6.42786C6.91689 6.31269 6.88712 6.21197 6.84238 6.12539C6.79797 6.03913 6.44137 5.18971 6.29301 4.84403C6.14465 4.49867 5.99645 4.55618 5.89233 4.55618C5.78854 4.55618 5.66962 4.54172 5.55086 4.54172C5.43211 4.54172 5.239 4.58493 5.07567 4.75761C4.9125 4.93045 4.45245 5.34809 4.45245 6.19735C4.45245 7.04677 5.09047 7.86744 5.17979 7.98245C5.26877 8.09746 6.41177 9.89718 8.22272 10.5884C10.0338 11.2793 10.0338 11.0487 10.3605 11.0198C10.6868 10.9911 11.4142 10.6024 11.5632 10.1995C11.7112 9.79598 11.7112 9.45046 11.667 9.3785Z" fill="white"/>
</svg>
