<svg id="year" width="16" height="17" viewBox="0 0 16 17" fill="none" xmlns="http://www.w3.org/2000/svg">
<path d="M0.487719 0.968638H3.68305V0.487651C3.68305 0.218386 3.90144 0 4.1707 0C4.43997 0 4.65836 0.218386 4.65836 0.487651V0.968638H7.5073V0.487651C7.5073 0.218386 7.72568 0 7.99495 0C8.26421 0 8.4826 0.218386 8.4826 0.487651V0.968638H11.2104V0.487651C11.2104 0.218386 11.4288 0 11.6981 0C11.9674 0 12.1857 0.218386 12.1857 0.487651V0.968638H15.5021C15.7714 0.968638 15.9897 1.18702 15.9897 1.45629V12.4749C15.9897 12.7442 15.7714 12.9626 15.5021 12.9626H12.5091C12.0294 15.0119 10.1882 16.543 7.99495 16.543C5.80165 16.543 3.96045 15.0118 3.48084 12.9626H0.487801C0.218536 12.9626 0.000149727 12.7442 0.000149727 12.4749V1.45629C6.86646e-05 1.18702 0.218373 0.968638 0.487719 0.968638ZM12.1857 1.94394V2.38461C12.1857 2.65388 11.9674 2.87227 11.6981 2.87227C11.4288 2.87227 11.2104 2.65388 11.2104 2.38461V1.94394H8.4826V2.38461C8.4826 2.65388 8.26421 2.87227 7.99495 2.87227C7.72568 2.87227 7.5073 2.65388 7.5073 2.38461V1.94394H4.65836V2.38461C4.65836 2.65388 4.43997 2.87227 4.1707 2.87227C3.90144 2.87227 3.68305 2.65388 3.68305 2.38461V1.94394H0.97537V3.93811H15.0144V1.94394H12.1857ZM7.99495 15.5677C10.014 15.5677 11.6566 13.925 11.6566 11.906C11.6566 9.88697 10.014 8.24431 7.99495 8.24431C5.97591 8.24431 4.33326 9.88689 4.33326 11.906C4.33326 13.9251 5.97583 15.5677 7.99495 15.5677ZM3.35999 11.9873C3.3595 11.9601 3.35795 11.9332 3.35795 11.906C3.35795 9.34917 5.43811 7.26901 7.99495 7.26901C10.5518 7.26901 12.6319 9.34917 12.6319 11.906C12.6319 11.9332 12.6303 11.9601 12.6299 11.9873H15.0145V4.91349H0.975452V11.9873H3.35999Z" fill="#75869A"/>
<path d="M7.50712 12.0291V9.67002C7.50712 9.40076 7.72551 9.18237 7.99477 9.18237C8.26404 9.18237 8.48242 9.40076 8.48242 9.67002V12.2312C8.48242 12.3605 8.43106 12.4845 8.33962 12.576L7.21884 13.6969C7.12358 13.7921 6.99882 13.8397 6.87399 13.8397C6.74923 13.8397 6.62439 13.7921 6.52913 13.6969C6.33871 13.5065 6.33871 13.1977 6.52913 13.0073L7.50712 12.0291Z" fill="#75869A"/>
</svg>
